<svg fill="none" height="29" viewBox="0 0 156 29" width="156" xmlns="http://www.w3.org/2000/svg"><g fill="#093242"><path d="m145.338 13.7998v11.8413h-4.138v-1.6943c-.366.5493-.864.9964-1.447 1.2995-.654.3388-1.38.5089-2.115.495-1.376 0-2.457-.4535-3.245-1.3603-.787-.9068-1.183-2.1415-1.187-3.7042v-6.877h4.093v6.3518c-.032.5812.161 1.1524.538 1.594.381.3721.892.5802 1.423.5802s1.042-.2081 1.423-.5802c.369-.4457.555-1.0154.523-1.594v-6.3518z"/><path d="m76.5544 15.0534c.8057.9068 1.2085 2.1345 1.2085 3.6829v6.9044h-4.1298v-6.3548c.0319-.5786-.1548-1.1479-.5227-1.594-.1788-.1934-.3974-.3455-.6404-.4456-.2431-.1002-.505-.146-.7674-.1343-.2691-.0142-.538.0302-.7883.1303s-.4761.2535-.6618.4496c-.3693.4454-.5562 1.0152-.5227 1.594v6.3548h-4.1177v-11.8413h4.1268v1.6882c.3764-.5472.8805-.9934 1.4682-1.2995.6531-.3388 1.3799-.5089 2.1148-.4949 1.3574 0 2.435.4534 3.2325 1.3602z"/><path d="m153.879 14.2855c.636-.3937 1.368-.6038 2.115-.6073v4.4117h-1.154c-.898 0-1.564.1761-1.997.5283-.432.3491-.649.9624-.649 1.8217v5.1616h-4.112v-11.8413h4.133v2.0889c.435-.6362 1.003-1.1697 1.664-1.5636z"/><path d="m95.3575 14.2855c.6361-.3937 1.3678-.6038 2.1148-.6073v4.4117h-1.148c-.8983 0-1.5639.1761-1.997.5283-.432.3491-.6495.9624-.6495 1.8217v5.1616h-4.1177v-11.8413h4.1177v2.0889c.44-.6379 1.0132-1.1715 1.6797-1.5636z"/><path d="m131.203 20.552h-7.792c-.002.5312.188 1.0451.535 1.4453.159.158.348.2818.555.3638.208.082.43.1204.654.1129.31.0155.617-.0653.88-.2316.262-.1662.468-.4098.588-.6975h4.39c-.175.8026-.538 1.5513-1.061 2.183-.536.6533-1.215 1.1729-1.985 1.5181-.832.3742-1.735.5618-2.646.5496-1.078.0201-2.143-.2337-3.097-.7378-.892-.4844-1.626-1.217-2.115-2.1102-.5-1.0004-.761-2.1047-.761-3.2245 0-1.1197.261-2.224.761-3.2244.489-.8906 1.223-1.6203 2.115-2.1011.963-.4822 2.024-.7347 3.101-.7379 1.076-.0032 2.138.2431 3.104.7197.884.4657 1.614 1.1799 2.1 2.0555.523.9669.784 2.0546.758 3.1547-.007.3223-.035.6438-.084.9624zm-4.139-2.0039c.012-.2243-.028-.4484-.115-.6551-.088-.2068-.221-.3908-.39-.5381-.357-.2757-.795-.427-1.245-.4308-.451-.0038-.891.1399-1.253.4095-.345.3182-.567.7481-.628 1.2145z"/><path d="m101.69 25.0487c-.917-.4794-1.679-1.2113-2.1965-2.1102-.5514-.989-.827-2.1093-.7975-3.2427-.026-1.1239.254-2.2335.8096-3.2092.5234-.8979 1.2874-1.6292 2.2054-2.1102.983-.4854 2.064-.7377 3.16-.7377s2.177.2523 3.16.7377c.918.481 1.682 1.2123 2.206 2.1102.531.987.809 2.0915.809 3.2138s-.278 2.2268-.809 3.2138c-.521.907-1.289 1.6447-2.215 2.1254-.982.5018-2.071.7551-3.172.7378-1.097.0212-2.182-.229-3.16-.7287zm4.604-3.4947c.416-.5206.622-1.1796.577-1.846.043-.6586-.163-1.3092-.577-1.8217-.176-.2022-.395-.3635-.639-.4725-.245-.1091-.51-.1633-.778-.1591-.266-.0052-.531.0487-.774.1579-.243.1091-.46.2709-.634.4737-.405.5162-.607 1.1652-.565 1.8217 0 .8096.182 1.429.544 1.8582.173.2046.389.3676.632.4769.244.1093.509.1622.776.1546.272.0057.542-.0491.791-.1604.248-.1112.469-.2763.647-.4833z"/><path d="m54.1895 25.0488c-.9164-.4788-1.6774-1.211-2.1933-2.1102-.5525-.9888-.8291-2.1091-.8006-3.2427-.0244-1.1237.2554-2.233.8097-3.2093.5238-.8972 1.288-1.6284 2.2054-2.1102.9839-.4853 2.0654-.7377 3.1615-.7377s2.1776.2524 3.1616.7377c.9174.4818 1.6815 1.213 2.2054 2.1102.5294.9877.8065 2.092.8065 3.2139 0 1.1218-.2771 2.2261-.8065 3.2138-.5224.9065-1.2918 1.6439-2.2175 2.1253-.9871.4875-2.0723.741-3.1721.741-1.0999 0-2.1851-.2535-3.1722-.741zm4.5981-3.4947c.4175-.5202.6246-1.1793.5801-1.8461.0419-.659-.1652-1.3096-.5801-1.8217-.1762-.2025-.3943-.3639-.639-.473-.2448-.1091-.5102-.1632-.7779-.1585-.2659-.0048-.5296.0493-.7724.1585-.2428.1091-.4587.2706-.6324.473-.4081.5151-.6106 1.1646-.568 1.8217 0 .8097.1823 1.4291.5469 1.8582.1716.2049.3871.3682.6304.4775.2432.1094.508.162.7744.154.272.0057.542-.049.7906-.1603.2485-.1113.4696-.2763.6474-.4833z"/><path d="m87.1312 22.1248v3.5251h-1.7855c-3.009 0-4.5135-1.4989-4.5135-4.4967v-3.9137h-1.4501v-3.44h1.4501v-2.8723h4.1359v2.8723h2.1419v3.44h-2.1419v3.9745c-.0115.1248.0021.2507.04.3701.0379.1195.0993.23.1805.3251.2131.163.4797.239.7462.2126z"/><path d="m36.0747 14.2519c.5885-1.1264 1.4887-2.0575 2.5921-2.681 1.1816-.6558 2.5144-.9868 3.864-.9595 1.8489 0 3.4037.4959 4.6645 1.4878 1.2686 1.0092 2.133 2.4438 2.435 4.0412h-4.4319c-.2302-.5278-.612-.9745-1.0964-1.2828-.4844-.3084-1.0494-.4643-1.6226-.4479-.4328-.0166-.8636.0671-1.2591.2445s-.7451.4439-1.0218.7787c-.566.6842-.849 1.5951-.849 2.7326 0 1.1376.283 2.0556.849 2.7539.2762.3354.6257.6022 1.0214.7797.3956.1775.8266.2608 1.2595.2435.5726.01 1.1363-.1437 1.6253-.4433.4838-.3129.8669-.7601 1.1027-1.2874h4.432c-.3035 1.5983-1.1715 3.0324-2.4441 4.0382-1.2588.9918-2.8136 1.4878-4.6645 1.4878-1.3496.0273-2.6824-.3037-3.864-.9595-1.104-.6227-2.0045-1.554-2.5921-2.681-.6022-1.2202-.9155-2.5638-.9155-3.9258s.3133-2.7056.9155-3.9258z"/><path d="m117.218 10.0195v15.6214h-4.117v-15.6214z"/><path d="m105.052 11.9687-2.628 1.3117v-2.1497l2.628-1.26302 2.596 1.26302v2.1497z"/><path d="m18.5342 0 10.3261 10.3778v-10.3778z"/><path d="m17.3833 6.47949 5.0211 5.04621v-5.04621z"/><path d="m47.6032 4.67588h-3.7219c-.001.25354.0903.49869.2568.68922.0755.07561.1657.13482.265.17399.0992.03917.2054.05746.312.05373.148.0073.2946-.03133.42-.11063.1253-.07929.2234-.19544.2809-.33266h2.0966c-.0843.3828-.2583.73984-.5075 1.04142-.2565.31125-.5812.55858-.9487.72262-.3973.17735-.828.26641-1.2628.26112-.514.00931-1.0221-.11183-1.4773-.35221-.4281-.23039-.7807-.58051-1.0151-1.00802-.2393-.4775-.3639-1.00471-.3639-1.53936 0-.53466.1246-1.06187.3639-1.53936.2312-.42527.5808-.77349 1.0061-1.00196.4584-.24342.971-.36567 1.4894-.35523.5121-.00994 1.0186.10795 1.4742.34309.4187.22152.7656.55861 1 .97159.2522.46496.3773.98877.3626 1.51811-.0011.1553-.0112.31042-.0303.46454zm-1.9757-.95945c.005-.10684-.0141-.21344-.056-.31178-.0419-.09835-.1054-.18587-.1857-.25599-.1687-.14219-.3843-.21584-.6042-.20646-.219-.01311-.4348.05738-.6043.19735-.166.14982-.2732.35448-.3021.57688z"/><path d="m38.9236 5.59271h2.1963v1.51811h-4.166v-7.11082h1.9697z"/><path d="m22.4109 14c.0006 1.4876-.4378 2.942-1.2597 4.1791-.8219 1.2372-1.9904 2.2016-3.3577 2.7713-1.3674.5697-2.8721.7191-4.3239.4292-1.4518-.2898-2.7855-1.0059-3.83233-2.0575-1.04686-1.0517-1.75987-2.3918-2.04885-3.8507-.28899-1.459-.14097-2.9713.42533-4.3457s1.52544-2.54916 2.75615-3.37568c1.2306-.82652 2.6776-1.26767 4.1577-1.26767v-6.48233007c-2.3308-.00395446-4.6253.58059807-6.67286 1.69999007-2.04753 1.1194-3.78246 2.73777-5.04554 4.70655-1.26308 1.96879-2.01383 4.22494-2.18334 6.56124-.169506 2.3363.24766 4.678 1.21321 6.8101v6.9014h6.8186c2.12083 1.0001 4.45893 1.4452 6.79683 1.2938s4.5998-.8943 6.5754-2.1597 3.6009-3.0123 4.7247-5.0782 1.7097-4.3837 1.7033-6.7382z"/></g></svg>