<svg xmlns="http://www.w3.org/2000/svg" xmlns:xlink="http://www.w3.org/1999/xlink" width="2556" height="2354" viewBox="0 0 2556 2354">
  <defs>
    <clipPath id="clip-path">
      <rect id="Rectangle_7" data-name="Rectangle 7" width="2493.68" height="2269.497" fill="#093242"/>
    </clipPath>
    <clipPath id="clip-corrupal">
      <rect width="2556" height="2354"/>
    </clipPath>
  </defs>
  <g id="corrupal" clip-path="url(#clip-corrupal)">
    <g id="Groupe_4" data-name="Groupe 4" transform="translate(33.16 30.179)">
      <g id="Groupe_3" data-name="Groupe 3" clip-path="url(#clip-path)">
        <path id="Tracé_79" data-name="Tracé 79" d="M443.482,442.883c-19.5-81.851-75.608-144.193-171.476-144.193-38.97,0-84.173,15.584-116.923,47.543C124.705,375.848,90.4,425.727,90.4,537.965c0,165.238,92.756,233.041,190.963,233.041,95.859,0,151.989-55.34,176.147-78.73l14.03,14.053c-.777,1.549-67.812,98.971-211.228,98.971C134.828,805.3,0,730.482,0,536.411,0,361.818,130.925,267.5,265,267.5c69.352,0,120.017,25.725,137.164,25.725,3.907,0,29.624,0,35.862-25.725h16.361l7.02,175.379Z" transform="translate(0 955.028)" fill="#093242"/>
        <path id="Tracé_80" data-name="Tracé 80" d="M280.041,648.837c-93.514,0-111.452-143.406-111.452-201.086,0-81.065,42.868-121.593,91.97-121.593,71.706,0,111.452,84.959,111.452,181.613,0,111.448-52.209,141.066-91.97,141.066M266.792,304.344c-104.446,0-168.35,84.959-168.35,180.822,0,105.223,70.147,185.484,170.695,185.484,118.463,0,173.021-108.326,173.021-185.484,0-113.02-73.269-180.822-175.366-180.822" transform="translate(351.452 1086.552)" fill="#093242"/>
        <path id="Tracé_81" data-name="Tracé 81" d="M225,402.547c0-45.989-14.8-46.753-27.279-46.753a117,117,0,0,0-26.493,3.1V346.44c38.188-12.481,77.158-26.53,115.355-42.1l3.894,1.554v69.37h1.563c36.634-55.358,63.137-70.924,92.756-70.924,26.493,0,42.082,16.352,42.082,42.1,0,19.455-10.918,34.276-29.61,34.276-27.288,0-35.08-27.279-53.791-27.279s-53,38.988-53,63.927V592.725c0,53.772,26.507,56.894,66.249,58.466v11.677H169.671V651.19C212.534,643.371,225,641.049,225,597.4Z" transform="translate(605.75 1086.552)" fill="#093242"/>
        <path id="Tracé_82" data-name="Tracé 82" d="M284.016,402.547c0-45.989-14.821-46.753-27.293-46.753a117,117,0,0,0-26.493,3.1V346.44c38.188-12.481,77.158-26.53,115.346-42.1l3.894,1.554v69.37h1.572c36.625-55.358,63.127-70.924,92.765-70.924,26.493,0,42.059,16.352,42.059,42.1,0,19.455-10.909,34.276-29.6,34.276-27.293,0-35.071-27.279-53.786-27.279s-53.009,38.988-53.009,63.927V592.725c0,53.772,26.507,56.894,66.249,58.466v11.677H228.672V651.19c42.859-7.82,55.345-10.141,55.345-53.786Z" transform="translate(816.392 1086.552)" fill="#093242"/>
        <path id="Tracé_83" data-name="Tracé 83" d="M652.488,628.741c-42.114,10.891-71.729,21.8-108.344,35.062l-1.572-1.554V597.555l-33.508,33.508c-30.4,30.4-67.8,33.508-81.833,33.508-31.973,0-92.76-18.692-92.76-101.311V366.849c0-46.771-24.939-48.325-48.325-49.879V306.048H399.932v254.1c0,10.909,7.015,59.234,58.466,59.234,23.385,0,46.776-10.923,67.8-28.065,7.015-6.247,12.481-14.03,12.481-39.756V368.385c0-31.15-3.108-47.52-57.68-49.074V306.048H604.145V573.383c0,28.061,1.572,46,48.343,44.431Z" transform="translate(1021.579 1092.635)" fill="#093242"/>
        <path id="Tracé_84" data-name="Tracé 84" d="M478.527,402.547c4.7-29.619,48.325-51.451,76.39-51.451,95.082,0,98.989,126.268,98.989,144.211,0,135.605-70.156,150.4-95.863,150.4-42.863,0-79.516-33.49-79.516-51.432ZM413.069,737.292c0,33.508-3.112,49.093-54.577,53v14.012H547.138V790.3c-56.13,0-68.612-8.569-68.612-58.466V637.142c25.725,24.939,47.543,33.508,78.748,33.508,108.326,0,163.666-109.112,163.666-198.746,0-103.651-59.233-167.56-128.622-167.56-60,0-95.845,38.184-112.216,60.015l-1.577-1.568v-56.9l-4.657-1.549q-56.158,22.2-112.256,39.737v12.477a207.494,207.494,0,0,1,21.836-.768c27.275,0,29.619,13.249,29.619,44.417Z" transform="translate(1279.868 1086.552)" fill="#093242"/>
        <path id="Tracé_85" data-name="Tracé 85" d="M630.887,567c0,23.385-2.317,32.722-26.507,44.417-7,3.912-31.173,14.049-48.311,14.049-28.847,0-51.432-24.172-51.432-60.8V563.11c0-26.511,8.551-70.161,126.25-109.131Zm120.807,44.417c-8.569,7.015-18.692,14.835-35.08,14.835-22.6,0-22.6-22.618-22.6-45.217V429.04c0-46.757,0-124.7-116.127-124.7-90.42,0-127.036,55.322-127.036,86.508,0,12.481,9.337,34.276,33.508,34.276,20.278,0,35.08-17.12,35.08-33.49,0-7.015-3.912-18.71-3.912-30.4,0-24.171,29.619-38.188,55.345-38.188,23.385,0,60.015,8.569,60.015,64.681v47.557c-127.05,49.879-194.852,76.372-194.852,154.3,0,52.232,40.542,81.065,82.619,81.065,42.863,0,84.173-31.168,113.02-56.875,3.912,56.108,36.634,56.875,50.646,56.875,12.481,0,36.634-.768,69.375-38.97Z" transform="translate(1556.708 1086.552)" fill="#093242"/>
        <path id="Tracé_86" data-name="Tracé 86" d="M502.517,786.971c46-3.126,60.038-13.263,60.038-56.126V359.055c0-35.08-4.7-47.539-35.1-47.539-10.123,0-17.156.786-26.511,1.554V300.607c41.309-10.141,82.619-21.045,123.928-34.294L628,267.867V733.181c0,45.2,13.244,51.432,58.466,53.791v11.677H502.517Z" transform="translate(1788.445 950.776)" fill="#093242"/>
        <path id="Tracé_87" data-name="Tracé 87" d="M128.227,281.377c-6.179.356-8.464,1-8.464,8.176v43.023c0,3.624,1.636,3.716,9.191,3.716,13.642,0,19.464-.357,24.656-12.266h2.267l-4.374,15.8H102.588v-1.714c5.827-.375,7.911-1.2,7.911-8.176V289.553c0-7.175-2.185-7.728-7.911-8.176v-1.732h25.639Z" transform="translate(366.254 998.373)" fill="#093242"/>
        <path id="Tracé_88" data-name="Tracé 88" d="M163.846,339.825h-49.1v-1.714c5.822-.375,7.911-1.2,7.911-8.176V289.553c0-7.175-2.175-7.728-7.911-8.176v-1.732h48.293l.27,13.016H161.03c-1.362-8.107-3.729-9.57-13.82-9.57H134.926c-1.9,0-3,0-3,3.108v20.173h14c8.107,0,9.012-2.18,10.013-8.642h2.089v21.1h-2.089c-1.092-7.266-2.459-8.551-10.013-8.637l-14-.165v22.549c0,3.716,0,3.8,13.555,3.8,11.38,0,15.909-2.715,19.917-11.905h2.541Z" transform="translate(409.653 998.373)" fill="#093242"/>
        <path id="Tracé_89" data-name="Tracé 89" d="M193.832,310.3c-3.994.356-6.352.535-6.352,7v18.262c0,1.27-12.1,6.554-22.1,6.554-9,0-19.094-2.733-25.547-9.712-4.831-5.283-7.559-10.658-7.559-22.567,0-15.278,11.832-30.474,31.1-30.474,9.186,0,13.372,3.021,16.283,3.021.736,0,3.729-.466,4.273-3.021h2.006l.722,19.194h-2.089c-2.463-6.535-7.193-15.552-19.926-15.552-8.624,0-22,5.749-22,28.742,0,16.462,9.456,26.744,23.555,26.744,6.183,0,12.444-2.107,12.444-5.374V318.392c0-7.555-1.81-7.641-7.993-8.089v-1.641h23.184Z" transform="translate(472.23 997.366)" fill="#093242"/>
        <path id="Tracé_90" data-name="Tracé 90" d="M163.341,286.285c0-2.642.827-3.286,5.649-3.286,3.725,0,15.634.288,15.634,12.371,0,13-13.637,13.176-21.283,13.285Zm41.364,51.825c-3.72-.178-5.9-1.819-7.9-4.268l-18.728-23.011c4.639-.909,16.448-3.089,16.448-15.283,0-13.994-14.99-15.9-23.079-15.9h-25.1v1.732c6.371.626,7.724,1.444,7.724,8.176v39.363c0,6.837-.356,8.747-7.724,9.2v1.714h25.191v-1.714c-7.276-.375-8.19-2.089-8.19-8.176V312.029l5.091-.2,21.644,27.992h14.629Z" transform="translate(522.455 998.373)" fill="#093242"/>
        <path id="Tracé_91" data-name="Tracé 91" d="M188.075,338.826c-10.109,0-19.373-8.085-19.373-28.079,0-20.744,10.1-28.1,19.373-28.1s19.368,7.358,19.368,28.1c0,19.994-9.277,28.079-19.368,28.079m0,3.286c16.457,0,29.738-11.905,29.738-31.278,0-20.922-14.821-31.47-29.738-31.47s-29.733,10.548-29.733,31.47c0,19.373,13.258,31.278,29.733,31.278" transform="translate(565.304 997.37)" fill="#093242"/>
        <path id="Tracé_92" data-name="Tracé 92" d="M234.057,281.377c-7,.713-8.551,2.089-8.551,11.64v23.724c0,7.285,0,24.368-23.541,24.368-22.567,0-22.567-17.728-22.567-23.189V289.553c0-6.732-1.27-7.728-8.181-8.176v-1.732h25.739v1.732c-7.175.535-8.277,1.714-8.277,8.176v29.1c0,5.822,0,18.459,15.831,18.459,7.088,0,12.266-2.907,14.9-7.175,1.184-2.015,2.1-5,2.1-12.371V293.017c0-9.73-2.189-11.284-8.551-11.64v-1.732h21.1Z" transform="translate(611.273 998.373)" fill="#093242"/>
        <path id="Tracé_93" data-name="Tracé 93" d="M202.534,286.107c0-3.016,1.005-3.108,3.729-3.108,3.994,0,17.275.183,17.275,13.194,0,13.839-12.184,13.839-15.548,13.839a52.9,52.9,0,0,1-5.457-.288Zm-16.909-4.73c6.627.626,7.632,1.714,7.632,8.176v39.363c0,6.553,0,8.661-7.632,9.2v1.714h25.456v-1.714c-7.006-.178-8.546-1.535-8.546-8.176V313.368c2.18.2,3.908.283,6.092.283,9.547,0,15.369-1.622,19.268-5.352a16.015,16.015,0,0,0,5.548-12.285c0-11.549-11.275-16.37-23.82-16.37h-24Z" transform="translate(662.708 998.373)" fill="#093242"/>
        <path id="Tracé_94" data-name="Tracé 94" d="M245.429,339.825H196.336v-1.714c5.8-.375,7.911-1.2,7.911-8.176V289.553c0-7.175-2.185-7.728-7.911-8.176v-1.732H244.61l.279,13.016h-2.267c-1.371-8.107-3.738-9.57-13.838-9.57H216.518c-1.91,0-3,0-3,3.108v20.173h14c8.094,0,9.008-2.18,10.009-8.642h2.1v21.1h-2.1c-1.092-7.266-2.454-8.551-10.009-8.637l-14-.165v22.549c0,3.716,0,3.8,13.546,3.8,11.366,0,15.922-2.715,19.917-11.905h2.541Z" transform="translate(700.948 998.373)" fill="#093242"/>
        <rect id="Rectangle_5" data-name="Rectangle 5" width="640.496" height="14.012" transform="translate(1834.414 1876.848)" fill="#093242"/>
        <rect id="Rectangle_6" data-name="Rectangle 6" width="1630.595" height="14.012" transform="translate(0 1876.848)" fill="#093242"/>
        <path id="Tracé_95" data-name="Tracé 95" d="M554.027,379.5h3.194c2.962,0,5.388,1.481,5.388,5.927,0,4.141-1.5,7.088-5.32,7.088h-3.263Zm-8.715-.3c3.8.375,3.715.3,3.715,3.729v18.637c0,3.341.087,3.341-3.715,3.734v1.179h12.463V405.3c-3.894-.393-3.748-.393-3.748-3.734v-7.641h3.656c4.927,7.248,6.892,12.554,9.355,12.554h4.909v-.7a34.723,34.723,0,0,1-5.836-6.549l-4.446-6.087a8.529,8.529,0,0,0,6.16-8.108c0-4.821-4.287-7.015-8.907-7.015H545.311ZM584.1,392.679c0-14.73-11.457-26.726-26.26-26.726a26.653,26.653,0,0,0,0,53.306,26.2,26.2,0,0,0,26.26-26.58m-4.282,0c0,12.39-9.73,23.317-21.978,23.317-12.477,0-22.279-10.927-22.279-23.317s9.748-23.477,22.279-23.477c12.321,0,21.978,11.014,21.978,23.477" transform="translate(1896.75 1306.505)" fill="#093242"/>
        <path id="Tracé_96" data-name="Tracé 96" d="M1391.349,705.745c25.849,77.482-12.641,183.775-97.687,280.945.768,2.162-80.087,79.726-123.5,110.182-43.49,30.442-102.65,60.5-146.706,78.73-121.488,46.862-235.472,45.953-298.782-6.659-163.022,27.384-303.878-7.125-374-107.325a225.947,225.947,0,0,1-13.066-21.3c-72-15.068-130.194-48.343-167.158-100.973-23.874-34.258-37.1-74.1-40.542-117.841A209.578,209.578,0,0,0,159.275,883.4C279.287,1054.849,636.6,1011.789,957.328,787.2S1440.762,241.6,1320.741,70.157a212.575,212.575,0,0,0-48.165-48.736c39.884,18.2,72.839,44.239,96.777,78.465,37.132,52.954,48.416,119.441,37.6,192.792,5.155,6.042,10.3,12.248,14.9,18.87,71.194,101.562,53.877,248.438-30.506,394.2m-18.39,30.181c-61.642,95.639-151.637,189.455-264.246,268.368-115.593,80.905-237.844,134-351.238,158.346,100.987,32.489,252.784-1.732,390.171-97.9,135.5-94.9,219.1-223.549,225.313-328.813m30.3-422.272C1369,483.933,1220.431,686.724,996.69,843.393,773,999.989,531.7,1070.255,360.014,1044.315c158.84,121.771,455.886,89.209,713.477-91.188,257.692-180.438,389.979-448.514,329.763-639.473" transform="translate(463.772 76.476)" fill="#093242"/>
        <path id="Tracé_97" data-name="Tracé 97" d="M332.135,193.785C161.5,262.209,67.528,352.25,67.528,447.327c0,95.059,93.971,185.1,264.607,253.524,173.017,69.379,403.224,107.595,648.211,107.595,201.708,0,393.1-25.789,553.481-74.566l12.079-3.679-1.517,12.541a495.616,495.616,0,0,0-3.9,57.776c0,6.01.224,11.9.6,17.65,46.835-31.931,227.68-160.362,331.427-305.944-72.336,34.107-276,120.3-519.232,137.644a483.345,483.345,0,0,0,71.55,27.814l-1.028,16c-113.518,18.468-234.549,27.832-359.739,27.832-230.152,0-446.645-31.676-609.607-89.191C288.814,573.865,197.594,495.044,197.594,410.378s91.22-163.492,256.865-221.958c162.962-57.524,379.459-89.2,609.607-89.2a2341.319,2341.319,0,0,1,267.943,15.123C1221.585,95.956,1102.355,86.2,980.346,86.2c-245,0-475.2,38.206-648.211,107.586" transform="translate(241.085 307.743)" fill="#093242"/>
        <path id="Tracé_98" data-name="Tracé 98" d="M1329.833,649.826s40.524,24.724,99.081,42.169c-109.08,17.741-230.417,27.722-358.418,27.722-473.988,0-858.25-135.619-858.25-302.909S596.508,113.872,1070.5,113.872c174.708,0,337.011,18.491,472.553,50.148.631-1.348,1.261-2.692,1.874-4.04C1390.068,112.578,1196.678,84.4,986.775,84.4,478.1,84.4,65.727,249.751,65.727,453.753c0,203.966,412.378,369.35,921.048,369.35,208.846,0,401.4-27.942,555.871-74.927-3.281,27.1-5.923,63.036-1.979,90.923,0,0,246.733-160.083,362.614-341.632,0,0-254.822,137.333-573.448,152.359" transform="translate(234.655 301.317)" fill="#093242"/>
        <path id="Tracé_99" data-name="Tracé 99" d="M402.541,244.978c77.085-53.964,113.81-134.531,82-179.922C478,55.65,468.891,48.653,458.092,43.7a58.153,58.153,0,0,1,6.266,7.532c31.831,45.4-1.75,123.792-74.959,174.991-73.131,51.24-158.269,55.971-190.081,10.562a64.678,64.678,0,0,1-4.931-8.455c1,11.832,4.474,22.768,11.032,32.151,31.794,45.414,120.039,38.44,197.124-15.506" transform="translate(693.982 156.03)" fill="#093242"/>
        <path id="Tracé_100" data-name="Tracé 100" d="M646.5,486.22C832.989,355.687,927.925,169.564,858.55,70.556c-13.729-19.665-33.133-34.18-56.519-44.207,7.751,6.33,14.945,13.231,20.694,21.439,64.16,91.654-28.993,267.577-208.037,392.941-179.049,125.4-376.246,152.743-440.393,61.121a105.673,105.673,0,0,1-13.084-26.781c1.371,25.41,8.414,48.59,22.211,68.237C252.755,642.322,460.1,616.752,646.5,486.22" transform="translate(575.543 94.07)" fill="#093242"/>
        <path id="Tracé_101" data-name="Tracé 101" d="M917.65,763.022c294.276-206.049,431.558-517.66,306.716-695.964C1205.515,40.1,1181.649,17.833,1153.922,0a209.02,209.02,0,0,1,30.707,34.527c113.664,162.245-27.919,457.389-316.035,659.161C580.4,895.437,254.7,927.465,141.1,765.225a208.567,208.567,0,0,1-19.981-35.867c7.454,30.2,19.78,58.411,37.617,83.88,124.806,178.3,464.592,155.846,758.914-50.217" transform="translate(432.416)" fill="#093242"/>
        <path id="Tracé_102" data-name="Tracé 102" d="M14.8,477.876a70.725,70.725,0,0,0-.439,7.111,17.394,17.394,0,0,0,5.553,13,18.661,18.661,0,0,0,13.459,5.374A30.122,30.122,0,0,0,45.537,500.8q5.847-2.529,17.389-11.21l1.8,2.5Q44.2,512.577,25.552,512.6q-12.648,0-19.067-7.984A27.206,27.206,0,0,1,.078,487.094q0-12.847,7.97-26.315a59.436,59.436,0,0,1,20.013-20.927,46.084,46.084,0,0,1,24.756-7.468c6.119,0,10.658,1.2,13.6,3.661a11.2,11.2,0,0,1,4.424,8.8c0,4.78-1.938,9.337-5.813,13.71q-7.637,8.528-22.513,13.793-9.865,3.517-27.718,5.525m.617-4.172c8.738-1,15.854-2.651,21.338-5.023Q47.646,463.958,53.1,457.37q5.436-6.588,5.425-12.522a7.684,7.684,0,0,0-2.34-5.85c-1.563-1.476-3.784-2.217-6.7-2.217q-9.015,0-19.158,9.314Q20.2,455.439,15.415,473.7" transform="translate(0.278 1543.677)" fill="#093242"/>
        <path id="Tracé_103" data-name="Tracé 103" d="M52.38,432.385,41.105,471.528c5.114-9.213,9.488-16.151,13.089-20.739q8.391-10.783,16.343-15.653a19.039,19.039,0,0,1,9.817-2.751,9.977,9.977,0,0,1,7.326,2.838,9.8,9.8,0,0,1,2.92,7.344,38.19,38.19,0,0,1-2.134,10.959l-6.608,21.713q14.917-26.379,28.239-37,7.417-5.854,14.624-5.859a8.962,8.962,0,0,1,6.91,2.961c1.787,1.97,2.7,5.064,2.7,9.2a34.58,34.58,0,0,1-1.773,10.516l-10.8,33.266c-2.363,7.244-3.528,11.224-3.528,12.07a2.871,2.871,0,0,0,.708,1.988,1.489,1.489,0,0,0,1.248.553,5.9,5.9,0,0,0,2.719-1.549,41.812,41.812,0,0,0,8.354-10l2.861,1.81a64.239,64.239,0,0,1-7.376,9.332c-3.519,3.935-6.544,6.6-9.035,7.979a14.6,14.6,0,0,1-6.919,2.093,6.545,6.545,0,0,1-4.881-2.066,7.022,7.022,0,0,1-1.965-5.036q0-4.147,4.113-16.667l9.1-27.718c2.057-6.421,3.158-9.945,3.3-10.662a17.338,17.338,0,0,0,.311-3.19,5.09,5.09,0,0,0-1.019-3.341,3.3,3.3,0,0,0-2.532-1.2c-2.614,0-5.384,1.2-8.313,3.688Q96.011,457.381,84.8,477.15q-7.383,13.059-13.825,33.472H57.859l15.781-52.1c1.718-5.6,2.587-9.392,2.587-11.265a5.26,5.26,0,0,0-.978-3.46,3.015,3.015,0,0,0-2.39-1.083,11.492,11.492,0,0,0-6.179,2.047c-3.528,2.244-8.089,7-13.656,14.373a112.805,112.805,0,0,0-12.947,21.087q-2.207,4.709-10.511,30.4H16.76l16.169-56.048,2.089-7.239a7.949,7.949,0,0,0,.608-2.486,4.5,4.5,0,0,0-1.746-3.432,6.6,6.6,0,0,0-4.456-1.513,45.374,45.374,0,0,0-6.289,1.047l-.644-3.071Z" transform="translate(59.836 1543.677)" fill="#093242"/>
        <path id="Tracé_104" data-name="Tracé 104" d="M91.873,422.575l-17.2,59.709c5.315-5.708,9.963-9.593,13.93-11.713a25.775,25.775,0,0,1,12.422-3.162,19.463,19.463,0,0,1,14.963,6.275c3.889,4.218,5.831,9.926,5.831,17.083q0,13.943-7.737,27.709a60.68,60.68,0,0,1-19.428,21.452c-7.788,5.1-15.461,7.7-23.02,7.7-8.459,0-17.152-3.263-26.05-9.684l26.178-90.768q3.016-10.53,3.021-12.358a4.158,4.158,0,0,0-1.394-3.4c-1.321-1.056-3.259-1.545-5.832-1.545a35.99,35.99,0,0,0-5.461.6V427.4ZM58.388,538.826c5.534,2.907,10.393,4.392,14.615,4.392,4.858,0,9.922-1.86,15.136-5.562q7.849-5.539,13.619-18.71a65.464,65.464,0,0,0,5.777-26.575q0-7.9-3.738-12.39a11.225,11.225,0,0,0-8.811-4.447q-7.637,0-14.949,6.7c-4.863,4.515-8.409,10.575-10.607,18.244Z" transform="translate(162.752 1508.653)" fill="#093242"/>
        <path id="Tracé_105" data-name="Tracé 105" d="M147.982,432.625l-16.832,58.79-1.956,7.838a7.428,7.428,0,0,0-.265,1.828,3.676,3.676,0,0,0,.6,2.143,1.507,1.507,0,0,0,1.229.718,3.621,3.621,0,0,0,2.093-1.271c1.609-1.549,3.738-4.922,6.4-10.159l2.943,2.093c-3.373,5.772-6.828,10.1-10.388,12.9s-6.864,4.236-9.89,4.236a6.313,6.313,0,0,1-4.858-1.874,7.548,7.548,0,0,1-1.714-5.379,44.045,44.045,0,0,1,1.892-11.1l1.919-6.517q-12.483,14.746-22.951,20.634a30.264,30.264,0,0,1-14.757,4.236,16.259,16.259,0,0,1-12-5.169q-5.066-5.162-5.055-14.177,0-13.553,8.948-28.573a72.541,72.541,0,0,1,22.7-24.062c7.189-4.781,13.953-7.139,20.333-7.139a16.667,16.667,0,0,1,9.506,2.523c2.523,1.7,4.447,4.506,5.745,8.437l2.875-8.971Zm-31.936,4.4q-6.026,0-12.806,5.068-9.6,7.232-17.074,21.411-7.486,14.163-7.486,25.625c0,3.866,1.115,6.892,3.327,9.131a10.518,10.518,0,0,0,7.637,3.368q10.674,0,23.194-13.687,15.28-18.153,14.784-37.274,0-7.2-3.1-10.434a11.222,11.222,0,0,0-8.473-3.208" transform="translate(229.896 1544.533)" fill="#093242"/>
        <path id="Tracé_106" data-name="Tracé 106" d="M131.363,422.574l-30.57,103.367c-1.49,5.114-2.226,8.313-2.226,9.479a3.167,3.167,0,0,0,.736,2.13,2.267,2.267,0,0,0,1.814.887,5.118,5.118,0,0,0,3.181-1.476q4.01-3.626,8.4-11.412l2.646,2.669c-5.219,7.687-10.022,13.08-14.423,16.123-3.24,2.175-6.316,3.281-9.227,3.281a6.921,6.921,0,0,1-5.215-2.235,7.177,7.177,0,0,1-2.13-5.123c0-2.089.973-6.362,2.875-12.838l24.3-81.348c1.91-6.641,2.861-10.47,2.861-11.448a4.308,4.308,0,0,0-1.645-3.45c-1.106-.873-2.824-1.3-5.164-1.3a45.5,45.5,0,0,0-6.156.6V427.4Z" transform="translate(301.159 1508.65)" fill="#093242"/>
        <path id="Tracé_107" data-name="Tracé 107" d="M142.127,422.574,111.567,525.941c-1.494,5.114-2.239,8.313-2.239,9.479a3.128,3.128,0,0,0,.745,2.13,2.261,2.261,0,0,0,1.814.887,5.139,5.139,0,0,0,3.181-1.476q4-3.626,8.414-11.412l2.637,2.669c-5.219,7.687-10.027,13.08-14.423,16.123-3.245,2.175-6.316,3.281-9.236,3.281a6.935,6.935,0,0,1-5.215-2.235,7.22,7.22,0,0,1-2.116-5.123q0-3.133,2.87-12.838l24.3-81.348c1.906-6.641,2.856-10.47,2.856-11.448a4.3,4.3,0,0,0-1.645-3.45c-1.111-.873-2.824-1.3-5.183-1.3a45.6,45.6,0,0,0-6.142.6V427.4Z" transform="translate(339.621 1508.65)" fill="#093242"/>
        <path id="Tracé_108" data-name="Tracé 108" d="M188.9,432.625l-16.823,58.79-1.951,7.838a7.252,7.252,0,0,0-.27,1.828,3.777,3.777,0,0,0,.6,2.143,1.516,1.516,0,0,0,1.238.718,3.634,3.634,0,0,0,2.093-1.271c1.6-1.549,3.725-4.922,6.4-10.159l2.934,2.093c-3.364,5.772-6.828,10.1-10.388,12.9s-6.869,4.236-9.885,4.236a6.344,6.344,0,0,1-4.863-1.874,7.571,7.571,0,0,1-1.723-5.379,43.757,43.757,0,0,1,1.906-11.1l1.915-6.517q-12.483,14.746-22.947,20.634a30.264,30.264,0,0,1-14.757,4.236,16.269,16.269,0,0,1-12.006-5.169q-5.059-5.162-5.05-14.177,0-13.553,8.939-28.573a72.7,72.7,0,0,1,22.709-24.062c7.18-4.781,13.957-7.139,20.328-7.139a16.661,16.661,0,0,1,9.5,2.523c2.527,1.7,4.456,4.506,5.754,8.437l2.875-8.971Zm-31.932,4.4q-6.012,0-12.805,5.068-9.6,7.232-17.07,21.411-7.479,14.163-7.477,25.625c0,3.866,1.115,6.892,3.318,9.131a10.508,10.508,0,0,0,7.632,3.368q10.68,0,23.2-13.687,15.267-18.153,14.78-37.274,0-7.2-3.1-10.434a11.233,11.233,0,0,0-8.478-3.208" transform="translate(376.04 1544.533)" fill="#093242"/>
        <path id="Tracé_109" data-name="Tracé 109" d="M219.755,437.668l-2.518,9.008H202.91a27.143,27.143,0,0,1,1.581,8.7c0,7.586-3.249,14.405-9.753,20.323-6.572,5.937-15.58,9.2-27.023,9.867-5.96,1.8-10.42,4-13.4,6.526a3.814,3.814,0,0,0-1.7,2.843,4.183,4.183,0,0,0,1.558,3.153Q155.7,499.523,162,501l16.873,3.848q13.992,3.284,18.409,7.783a14.824,14.824,0,0,1,4.355,10.5,19.154,19.154,0,0,1-5.233,12.989c-3.5,3.894-8.61,6.974-15.324,9.168a71.02,71.02,0,0,1-22.307,3.345,71.9,71.9,0,0,1-19.569-2.541c-5.9-1.723-10.114-4-12.655-6.874-2.527-2.893-3.807-5.859-3.807-8.885a14.693,14.693,0,0,1,2.491-7.733,21.859,21.859,0,0,1,6.2-6.6q2.365-1.652,13.317-7.765c-2.66-2.075-3.99-4.323-3.99-6.791,0-2.326,1.124-4.757,3.386-7.363,2.226-2.587,7.02-5.438,14.3-8.514a25.349,25.349,0,0,1-14.666-7.966,20.006,20.006,0,0,1-5.434-13.642q0-12.271,10.808-21.9c7.2-6.476,16.8-9.67,28.769-9.67a37.177,37.177,0,0,1,10.685,1.257,28.646,28.646,0,0,1,8.075,4.026Zm-71.28,72.8a26.317,26.317,0,0,0-10.69,8.213,16.968,16.968,0,0,0-3.615,9.871c0,3.83,1.741,6.942,5.215,9.424,4.986,3.556,12.271,5.388,21.886,5.388,8.267,0,15.342-1.43,21.233-4.209,5.873-2.806,8.8-6.421,8.8-10.9,0-2.226-1.083-4.346-3.254-6.384-2.162-2.02-6.366-3.647-12.6-4.913q-5.141-1.042-26.978-6.49m41.739-59.042c0-4.547-1.339-8.126-3.967-10.758a14.245,14.245,0,0,0-10.4-3.889c-6.741,0-12.275,3.2-16.658,9.652a35.646,35.646,0,0,0-6.563,20.228,14.643,14.643,0,0,0,4.2,10.753,13.958,13.958,0,0,0,10.187,4.191,18.447,18.447,0,0,0,9.154-2.482,22.533,22.533,0,0,0,7.445-6.832,35.3,35.3,0,0,0,4.826-11.119,43.24,43.24,0,0,0,1.782-9.743" transform="translate(438.217 1543.677)" fill="#093242"/>
        <path id="Tracé_110" data-name="Tracé 110" d="M159.118,477.876a70.529,70.529,0,0,0-.434,7.111,17.385,17.385,0,0,0,5.544,13,18.7,18.7,0,0,0,13.468,5.374,30.053,30.053,0,0,0,12.161-2.555q5.861-2.529,17.394-11.21l1.805,2.5q-20.545,20.483-39.18,20.506-12.655,0-19.057-7.984a27.151,27.151,0,0,1-6.426-17.522q0-12.847,7.966-26.315a59.566,59.566,0,0,1,20.017-20.927,46.079,46.079,0,0,1,24.766-7.468c6.119,0,10.653,1.2,13.6,3.661a11.237,11.237,0,0,1,4.419,8.8c0,4.78-1.929,9.337-5.8,13.71q-7.657,8.528-22.513,13.793-9.858,3.517-27.722,5.525m.617-4.172c8.743-1,15.854-2.651,21.329-5.023q10.907-4.723,16.352-11.311t5.438-12.522A7.648,7.648,0,0,0,200.5,439q-2.324-2.214-6.677-2.217-9.021,0-19.163,9.314-10.132,9.344-14.922,27.608" transform="translate(515.504 1543.677)" fill="#093242"/>
        <path id="Tracé_111" data-name="Tracé 111" d="M269.36,422.383,238.8,526.591c-1.654,5.667-2.5,9.346-2.5,11.142a2.6,2.6,0,0,0,.484,1.421c.324.471.64.695.992.695a2.8,2.8,0,0,0,1.737-.987q1.919-1.912,6.444-10.223l2.934,1.81A56.237,56.237,0,0,1,238.745,543.6c-3.418,3.117-6.6,4.712-9.574,4.712a5.446,5.446,0,0,1-4.163-2.093,8.8,8.8,0,0,1-1.764-5.859c0-3.258.855-7.655,2.582-13.153l3.345-10.854c-9.223,12.952-17.641,21.863-25.223,26.827q-7.849,5.128-15.013,5.132a16.808,16.808,0,0,1-12.668-5.832c-3.6-3.908-5.4-9.181-5.4-15.886q0-12.847,8.916-27.43a71.985,71.985,0,0,1,23.541-23.76q11.537-7.328,21.21-7.308a18.306,18.306,0,0,1,8.711,1.919,23.58,23.58,0,0,1,7.225,6.371l8.272-28.678c.928-3.24,1.664-5.831,2.244-7.746a21.456,21.456,0,0,0,1.037-5.777,4.075,4.075,0,0,0-1.3-3.053,7.739,7.739,0,0,0-4.822-1.453,61.9,61.9,0,0,0-6.782.612v-3.076Zm-33.568,62.351a11.735,11.735,0,0,0-3.542-8.9,12.5,12.5,0,0,0-8.98-3.341q-12.031,0-25.09,17.961-13.011,17.954-13.03,34.418,0,6.485,3.341,9.885a10.711,10.711,0,0,0,7.961,3.437q10.523,0,24.916-19.441,14.43-19.489,14.423-34.015" transform="translate(610.027 1507.968)" fill="#093242"/>
        <path id="Tracé_112" data-name="Tracé 112" d="M197.038,458.27a30.4,30.4,0,0,0,10.685-7.449c2.1-2.313,3.162-4.488,3.162-6.581a7.817,7.817,0,0,0-.526-2.925,14.938,14.938,0,0,0-2.44-2.774,10.464,10.464,0,0,1-2.367-2.866,8.462,8.462,0,0,1-.6-3.373,9.024,9.024,0,0,1,2.546-6.4,8.06,8.06,0,0,1,6.023-2.655,8.287,8.287,0,0,1,6.275,2.852,9.841,9.841,0,0,1,2.733,7.152c0,5.141-2.029,10.32-6.1,15.589-4.045,5.205-9.945,9.273-17.641,12.193Z" transform="translate(703.454 1511.06)" fill="#093242"/>
        <path id="Tracé_113" data-name="Tracé 113" d="M218.327,477.876a68.288,68.288,0,0,0-.443,7.111,17.423,17.423,0,0,0,5.548,13,18.68,18.68,0,0,0,13.464,5.374A30.213,30.213,0,0,0,249.07,500.8c3.885-1.686,9.7-5.42,17.38-11.21l1.8,2.5q-20.538,20.483-39.162,20.506-12.675,0-19.071-7.984a27.161,27.161,0,0,1-6.412-17.522q0-12.847,7.957-26.315a59.646,59.646,0,0,1,20.017-20.927,46.14,46.14,0,0,1,24.77-7.468c6.128,0,10.648,1.2,13.592,3.661a11.2,11.2,0,0,1,4.424,8.8c0,4.78-1.942,9.337-5.813,13.71q-7.637,8.528-22.517,13.793-9.865,3.517-27.7,5.525m.612-4.172c8.738-1,15.854-2.651,21.343-5.023q10.886-4.723,16.334-11.311t5.443-12.522a7.645,7.645,0,0,0-2.354-5.85,9.354,9.354,0,0,0-6.677-2.217q-9.042,0-19.167,9.314-10.132,9.344-14.922,27.608" transform="translate(726.888 1543.677)" fill="#093242"/>
        <path id="Tracé_114" data-name="Tracé 114" d="M254.95,432.385a34.968,34.968,0,0,1,6.394,8.944c1.019,2.075,2.683,7.6,4.991,16.548l7.66-11.489a47.314,47.314,0,0,1,7.367-7.957,31.025,31.025,0,0,1,7.659-5.21,11.847,11.847,0,0,1,4.6-.836,8.609,8.609,0,0,1,5.946,1.983,6.419,6.419,0,0,1,2.216,4.872c0,2.23-.434,3.725-1.312,4.561a8.034,8.034,0,0,1-5.539,2.2,11.432,11.432,0,0,1-3.894-.791,20.335,20.335,0,0,0-5.461-1.412c-1.38,0-3.021.8-4.927,2.436q-5.381,4.477-12.819,17.4l7.02,29.615q1.659,6.773,2.783,8.089a3.075,3.075,0,0,0,2.276,1.367,7.261,7.261,0,0,0,4.269-1.979,34.2,34.2,0,0,0,8.18-10.338l3.053,1.549a54.132,54.132,0,0,1-13.9,16.864c-3.172,2.518-5.863,3.793-8.066,3.793-3.236,0-5.809-1.837-7.71-5.361q-1.782-3.394-7.4-28.952-13.45,23.281-21.539,29.98c-3.5,2.865-6.892,4.332-10.169,4.332a9.357,9.357,0,0,1-6.284-2.486,6.452,6.452,0,0,1-2.075-5.059,6.4,6.4,0,0,1,6.522-6.522c1.828,0,3.766.923,5.818,2.788,1.508,1.353,2.642,2.038,3.441,2.038a4.689,4.689,0,0,0,2.66-1.376c2.7-2.194,6.353-6.874,11-14.1q6.937-10.832,9.081-15.644-5.354-21.23-5.772-22.444c-1.316-3.789-3.062-6.49-5.173-8.034-2.125-1.581-5.256-2.344-9.392-2.344-1.321,0-2.843.046-4.556.155v-3.016Z" transform="translate(779.237 1543.677)" fill="#093242"/>
        <path id="Tracé_115" data-name="Tracé 115" d="M290.9,432.385l-5.731,19.825q9.447-11.044,16.859-15.429a29,29,0,0,1,15.1-4.4,17.069,17.069,0,0,1,13.167,6.074q5.457,6.087,5.466,15.845,0,19-15.493,38.622-15.527,19.661-36.127,19.674a28.8,28.8,0,0,1-7.673-.946,34.992,34.992,0,0,1-7.486-3.323l-6.407,22.289c-1.284,4.392-1.915,7.276-1.915,8.619a5.253,5.253,0,0,0,1,3.236,6.409,6.409,0,0,0,3.249,2.1c1.485.475,4.474.759,8.907.759l-.777,3.089H232.564l.873-3.089c5.342-.261,8.971-1.156,10.836-2.811,1.892-1.572,3.853-6.078,5.941-13.418l21.813-75.636q1.988-7.411,1.983-9.172a4.9,4.9,0,0,0-1.357-3.743,5.7,5.7,0,0,0-4.113-1.316,54.561,54.561,0,0,0-7.056.612v-3.071Zm-19.889,68.936c3.61,4.291,8.487,6.449,14.592,6.449a19.623,19.623,0,0,0,9.277-2.532,34.139,34.139,0,0,0,9.241-7.431,59.625,59.625,0,0,0,8.075-11.343,86.51,86.51,0,0,0,6.444-15.132,56.009,56.009,0,0,0,2.838-17.262c0-4.607-1.074-8.117-3.217-10.566a9.8,9.8,0,0,0-7.554-3.651q-9.529,0-18.82,10.671a65.168,65.168,0,0,0-13.459,25.09Z" transform="translate(830.287 1543.677)" fill="#093242"/>
        <path id="Tracé_116" data-name="Tracé 116" d="M272.138,510.493c-.288,2.852-.443,5.224-.443,7.107a17.5,17.5,0,0,0,5.539,13,18.763,18.763,0,0,0,13.459,5.374,30.2,30.2,0,0,0,12.207-2.559q5.847-2.53,17.357-11.206l1.81,2.5q-20.531,20.477-39.175,20.5-12.648,0-19.058-7.984a27.078,27.078,0,0,1-6.421-17.522q0-12.847,7.975-26.31A59.555,59.555,0,0,1,285.4,472.47,46.115,46.115,0,0,1,310.153,465c6.129,0,10.676,1.2,13.592,3.656a11.179,11.179,0,0,1,4.447,8.8c0,4.785-1.942,9.337-5.827,13.71q-7.644,8.528-22.522,13.8-9.837,3.51-27.7,5.525m.626-4.172c8.724-1,15.849-2.651,21.338-5.023q10.879-4.723,16.32-11.316c3.661-4.387,5.466-8.56,5.466-12.522a7.674,7.674,0,0,0-2.363-5.845,9.373,9.373,0,0,0-6.682-2.217c-6.033,0-12.413,3.085-19.176,9.314q-10.118,9.344-14.9,27.608m58.726-83.072-25.954,29.669H302.9l9.026-29.669Z" transform="translate(919.001 1511.06)" fill="#093242"/>
        <path id="Tracé_117" data-name="Tracé 117" d="M372.666,422.383,342.124,526.591c-1.673,5.667-2.5,9.346-2.5,11.142a2.619,2.619,0,0,0,.471,1.421c.329.471.663.695.992.695a2.833,2.833,0,0,0,1.755-.987c1.257-1.275,3.414-4.68,6.421-10.223l2.939,1.81A56.718,56.718,0,0,1,342.078,543.6c-3.409,3.117-6.59,4.712-9.561,4.712a5.422,5.422,0,0,1-4.172-2.093,8.727,8.727,0,0,1-1.8-5.859c0-3.258.841-7.655,2.605-13.153l3.364-10.854c-9.263,12.952-17.664,21.863-25.25,26.827q-7.822,5.128-15,5.132a16.761,16.761,0,0,1-12.673-5.832c-3.62-3.908-5.4-9.181-5.4-15.886q0-12.847,8.916-27.43a72.4,72.4,0,0,1,23.518-23.76c7.7-4.885,14.789-7.308,21.205-7.308a18.438,18.438,0,0,1,8.743,1.919,24.188,24.188,0,0,1,7.235,6.371l8.258-28.678c.9-3.24,1.654-5.831,2.244-7.746a21.3,21.3,0,0,0,1.065-5.777,4.014,4.014,0,0,0-1.321-3.053,7.785,7.785,0,0,0-4.84-1.453,61.114,61.114,0,0,0-6.764.612v-3.076ZM339.1,484.734a11.864,11.864,0,0,0-3.51-8.9,12.559,12.559,0,0,0-9.012-3.341q-12.031,0-25.054,17.961-13.073,17.954-13.052,34.418c0,4.323,1.129,7.623,3.327,9.885a10.781,10.781,0,0,0,7.97,3.437q10.5,0,24.948-19.441,14.369-19.489,14.382-34.015" transform="translate(978.908 1507.968)" fill="#093242"/>
        <path id="Tracé_118" data-name="Tracé 118" d="M329.013,458.9l-18.235,61.318a42.629,42.629,0,0,0-1.846,7.44,3.114,3.114,0,0,0,.768,2.166,2.339,2.339,0,0,0,1.759.836,4.909,4.909,0,0,0,2.856-1.312,49.418,49.418,0,0,0,9.122-11.033l3.007,2.016a56.962,56.962,0,0,1-13.18,14.8c-3.747,2.929-7.349,4.433-10.767,4.433a7.727,7.727,0,0,1-5.525-2.093,7.161,7.161,0,0,1-2.139-5.27q0-3.222,2.312-10.731l12.061-39.061q2.749-9.714,2.742-12.175a4.087,4.087,0,0,0-1.326-3.153,5.256,5.256,0,0,0-3.665-1.229,60.013,60.013,0,0,0-7.87.964v-3.071Zm-3.77-34.066a8.414,8.414,0,0,1,6.188,2.518,8.329,8.329,0,0,1,2.5,6.16,8.2,8.2,0,0,1-2.55,6.1,8.68,8.68,0,1,1-6.133-14.78" transform="translate(1052.596 1516.715)" fill="#093242"/>
        <path id="Tracé_119" data-name="Tracé 119" d="M346.04,427.717l-7.011,23.317h11.8l-1.54,5.484H337.37l-15.831,50.943c-1.956,5.8-2.957,9.533-2.957,11.247a3.225,3.225,0,0,0,.649,2.134,1.817,1.817,0,0,0,1.444.727c1.321,0,3.026-.941,5.137-2.861,1.238-1.166,3.976-4.671,8.308-10.63l2.838,2.18c-5.014,7.6-9.8,12.893-14.3,15.854a16.237,16.237,0,0,1-9.259,3.153,7.918,7.918,0,0,1-5.909-2.377,8.229,8.229,0,0,1-2.3-6.046c0-3.089.983-7.842,2.916-14.231l15.2-50.093H310.137l.887-3.409a46.364,46.364,0,0,0,16.133-7.751c4.465-3.4,9.456-9.318,15.1-17.641Z" transform="translate(1089.579 1527.011)" fill="#093242"/>
        <path id="Tracé_120" data-name="Tracé 120" d="M350.541,458.9l-18.2,61.318a42.626,42.626,0,0,0-1.847,7.44,3.021,3.021,0,0,0,.75,2.166,2.327,2.327,0,0,0,1.778.836,5.129,5.129,0,0,0,2.861-1.312,49.781,49.781,0,0,0,9.108-11.033l3.025,2.016a58.058,58.058,0,0,1-13.208,14.8c-3.743,2.929-7.344,4.433-10.749,4.433a7.711,7.711,0,0,1-5.534-2.093,7.082,7.082,0,0,1-2.148-5.27c0-2.148.791-5.722,2.34-10.731l12.015-39.061c1.837-6.476,2.774-10.539,2.774-12.175a4.158,4.158,0,0,0-1.335-3.153,5.257,5.257,0,0,0-3.684-1.229,60.812,60.812,0,0,0-7.87.964v-3.071Zm-3.729-34.066a8.569,8.569,0,0,1,8.683,8.679,8.3,8.3,0,0,1-2.55,6.1,8.548,8.548,0,0,1-12.262,0,8.286,8.286,0,0,1-2.555-6.1,8.561,8.561,0,0,1,8.683-8.679" transform="translate(1129.518 1516.715)" fill="#093242"/>
        <path id="Tracé_121" data-name="Tracé 121" d="M402.987,459.385a53.278,53.278,0,0,1-6.9,25.647,52.16,52.16,0,0,1-19.14,20.118q-12.305,7.445-23.884,7.449c-7.874,0-14.336-2.527-19.309-7.591-5-5.032-7.463-11.53-7.463-19.569,0-8.441,2.413-16.9,7.294-25.433a54.993,54.993,0,0,1,19.537-20.218q12.25-7.417,23.637-7.4c7.627,0,13.884,2.477,18.792,7.486,4.954,5,7.436,11.521,7.436,19.515M388.7,453.33c0-5.356-1.33-9.447-3.962-12.3a13.147,13.147,0,0,0-10.118-4.246q-12.751,0-23.385,18.166-10.674,18.139-10.662,36.141,0,8.192,4.1,12.655a13.766,13.766,0,0,0,10.479,4.451q12.2,0,22.851-18.1,10.687-18.1,10.694-36.762" transform="translate(1164.906 1543.677)" fill="#093242"/>
        <path id="Tracé_122" data-name="Tracé 122" d="M380.649,432.385l-11.393,39.459q17.405-24.186,26.662-31.827c6.179-5.119,12.111-7.632,17.833-7.632a10.167,10.167,0,0,1,7.669,3.126,11.12,11.12,0,0,1,3,8.13c0,3.437-.919,8-2.82,13.706l-11.91,36.058c-1.353,4.182-2.052,6.741-2.052,7.655a2.7,2.7,0,0,0,.644,1.9,1.587,1.587,0,0,0,1.266.809,3.75,3.75,0,0,0,2.212-1.06,55.358,55.358,0,0,0,8.889-11l2.651,1.659c-5.1,7.509-9.935,12.883-14.505,15.968-3.181,2.157-6.014,3.263-8.546,3.263a6.441,6.441,0,0,1-4.867-1.933,7.171,7.171,0,0,1-1.833-5.169c0-2.737,1.17-7.495,3.409-14.218l11.48-34.619c1.462-4.314,2.207-7.691,2.207-10.1a3.551,3.551,0,0,0-1.238-2.792,4.355,4.355,0,0,0-3.025-1.051,13.37,13.37,0,0,0-6.311,2.015q-6.979,3.9-14.551,12.81a176.459,176.459,0,0,0-15.932,22.75,77.685,77.685,0,0,0-7.362,15.986l-4.141,14.341h-12.8l15.662-54.284c1.828-6.513,2.779-10.415,2.779-11.736a4.308,4.308,0,0,0-1.517-3.309,5.289,5.289,0,0,0-3.738-1.44,33.8,33.8,0,0,0-3.565.324l-3.249.562-.832-3.071Z" transform="translate(1232.735 1543.677)" fill="#093242"/>
        <path id="Tracé_123" data-name="Tracé 123" d="M438.979,432.385,433.7,458.974h-3.3q-.452-11.633-4.885-16.919a13.891,13.891,0,0,0-11.042-5.274c-3.542,0-6.362.946-8.441,2.911a9.467,9.467,0,0,0-3.089,7.07,11.727,11.727,0,0,0,1.234,5.448,33.86,33.86,0,0,0,5.457,7.257c7.413,8.194,12.243,14.336,14.391,18.5a24.98,24.98,0,0,1,3.309,11.709c0,5.991-2.518,11.325-7.481,15.941-4.954,4.652-11.261,6.988-18.843,6.988a43,43,0,0,1-14.3-2.943,13.98,13.98,0,0,0-4.406-1.024c-2.568,0-4.524,1.334-5.854,3.967h-3.167l5.265-28.138h3.3q.487,13.189,5.416,18.687c3.277,3.638,7.788,5.484,13.468,5.484,4.4,0,7.861-1.234,10.443-3.684a12,12,0,0,0,3.853-9.008,15,15,0,0,0-1.412-6.389q-2.454-5.2-10.187-14.35c-5.173-6.1-8.464-10.694-9.936-13.733a20.7,20.7,0,0,1-2.194-9.145,18.806,18.806,0,0,1,6.032-14.186c4.058-3.834,9.25-5.754,15.634-5.754a24.7,24.7,0,0,1,4.991.439A46.551,46.551,0,0,1,423.6,434.8c2.952,1.133,4.908,1.75,5.891,1.75,2.454,0,4.538-1.4,6.192-4.168Z" transform="translate(1332.642 1543.677)" fill="#093242"/>
        <path id="Tracé_124" data-name="Tracé 124" d="M469.765,434.368,453.993,486.66q-3.537,11.682-3.542,14.73a3.922,3.922,0,0,0,.452,2.12,1.344,1.344,0,0,0,1.17.654,3.991,3.991,0,0,0,2.532-1.248c.923-.823,3.259-4.3,7.024-10.511l2.591,1.983c-3.99,7-8.071,12.047-12.289,15.182a13.735,13.735,0,0,1-8.021,3.03,6.11,6.11,0,0,1-4.689-1.892,7.019,7.019,0,0,1-1.732-4.927,34.582,34.582,0,0,1,1.111-7.719c1-3.981,3.752-13.126,8.2-27.453q-15.246,24.075-25.5,33.019-10.242,8.96-18.952,8.971a9.738,9.738,0,0,1-6.933-2.751,9.385,9.385,0,0,1-2.82-6.956c0-4.31,1.5-10.927,4.561-19.853l9.008-26.731c2.226-6.412,3.327-10.356,3.327-11.923a2.268,2.268,0,0,0-.887-1.787,2.869,2.869,0,0,0-1.915-.722,8.37,8.37,0,0,0-4.342,1.307q-2.173,1.282-9.821,9.565l-2.705-1.892c4.73-6.672,9.734-11.617,15.017-14.771,4.022-2.5,7.724-3.7,11.133-3.7a7.3,7.3,0,0,1,5.708,2.422,8.937,8.937,0,0,1,2.2,6.284c0,3.071-1.312,8.569-4.026,16.48l-9.515,27.576q-3.935,11.3-3.921,14.273a3.368,3.368,0,0,0,1.092,2.628,4.245,4.245,0,0,0,3,1.015c1.974,0,4.524-.969,7.7-2.856,3.144-1.9,7.385-6.151,12.659-12.732a168.762,168.762,0,0,0,13.075-18.468c3.4-5.745,7.088-14.935,10.95-27.48l2.061-7.157Z" transform="translate(1391.728 1543.677)" fill="#093242"/>
        <path id="Tracé_125" data-name="Tracé 125" d="M414.222,437.234l29.523-4.849-12.138,41.972q15.239-25.844,27.736-36.109c4.662-3.908,8.51-5.863,11.48-5.863a5.992,5.992,0,0,1,4.529,1.682,6.457,6.457,0,0,1,1.682,4.84,21.547,21.547,0,0,1-2.957,10.886c-1.38,2.6-3.382,3.9-5.969,3.9a4.847,4.847,0,0,1-3.432-1.307,6.256,6.256,0,0,1-1.764-3.962,3.393,3.393,0,0,0-.791-2.162,2.15,2.15,0,0,0-1.65-.685,5.529,5.529,0,0,0-2.765.685c-1.494.786-3.807,3.035-6.855,6.714a192.232,192.232,0,0,0-15.557,21.982,67.064,67.064,0,0,0-6.284,12.92c-2.4,6.585-3.793,10.516-4.127,11.864l-2.8,10.882H408.9L424.331,457c1.878-6.321,2.783-10.79,2.783-13.491a3.153,3.153,0,0,0-1.284-2.605,6.711,6.711,0,0,0-4.364-1.417,39.846,39.846,0,0,0-6.179.818Z" transform="translate(1459.839 1543.677)" fill="#093242"/>
        <path id="Tracé_126" data-name="Tracé 126" d="M469.173,432.385,457.88,471.528c5.142-9.213,9.465-16.151,13.062-20.739q8.432-10.783,16.357-15.653a19,19,0,0,1,9.831-2.751,10.077,10.077,0,0,1,7.344,2.838,9.841,9.841,0,0,1,2.907,7.344,37.638,37.638,0,0,1-2.143,10.959l-6.59,21.713q14.855-26.379,28.239-37,7.369-5.854,14.606-5.859a8.851,8.851,0,0,1,6.892,2.961c1.814,1.97,2.706,5.064,2.706,9.2a34.434,34.434,0,0,1-1.773,10.516l-10.776,33.266C536.162,495.572,535,499.552,535,500.4a2.956,2.956,0,0,0,.7,1.988,1.507,1.507,0,0,0,1.266.553,5.963,5.963,0,0,0,2.706-1.549,41.9,41.9,0,0,0,8.345-10l2.861,1.81a63.6,63.6,0,0,1-7.376,9.332q-5.285,5.9-9.04,7.979a14.615,14.615,0,0,1-6.91,2.093,6.534,6.534,0,0,1-4.876-2.066,6.954,6.954,0,0,1-1.974-5.036q0-4.147,4.117-16.667l9.1-27.718c2.07-6.421,3.172-9.945,3.3-10.662a17.281,17.281,0,0,0,.288-3.19,4.92,4.92,0,0,0-1.024-3.341,3.2,3.2,0,0,0-2.491-1.2c-2.637,0-5.4,1.2-8.341,3.688q-12.887,10.975-24.08,30.743-7.369,13.059-13.847,33.472H474.63l15.794-52.1c1.714-5.6,2.587-9.392,2.587-11.265a5.135,5.135,0,0,0-.992-3.46,2.98,2.98,0,0,0-2.395-1.083,11.421,11.421,0,0,0-6.179,2.047c-3.538,2.244-8.076,7-13.651,14.373a111.605,111.605,0,0,0-12.92,21.087q-2.262,4.709-10.539,30.4H433.544l16.151-56.048,2.111-7.239a9.292,9.292,0,0,0,.6-2.486,4.566,4.566,0,0,0-1.76-3.432A6.548,6.548,0,0,0,446.2,439.9a45.1,45.1,0,0,0-6.3,1.047l-.622-3.071Z" transform="translate(1547.814 1543.677)" fill="#093242"/>
        <path id="Tracé_127" data-name="Tracé 127" d="M476.792,477.876c-.288,2.852-.434,5.228-.434,7.111a17.377,17.377,0,0,0,5.553,13,18.677,18.677,0,0,0,13.459,5.374,30.079,30.079,0,0,0,12.17-2.555q5.848-2.529,17.38-11.21l1.833,2.5Q506.16,512.577,487.587,512.6c-8.482,0-14.825-2.669-19.085-7.984a27.151,27.151,0,0,1-6.426-17.522c0-8.564,2.632-17.339,7.966-26.315a59.7,59.7,0,0,1,20.008-20.927,46.091,46.091,0,0,1,24.766-7.468c6.133,0,10.671,1.2,13.587,3.661a11.252,11.252,0,0,1,4.433,8.8c0,4.78-1.933,9.337-5.818,13.71q-7.616,8.528-22.5,13.793c-6.572,2.344-15.753,4.2-27.727,5.525m.631-4.172c8.711-1,15.859-2.651,21.333-5.023q10.906-4.723,16.334-11.311c3.633-4.392,5.434-8.56,5.434-12.522a7.606,7.606,0,0,0-2.344-5.85c-1.549-1.476-3.8-2.217-6.691-2.217q-9.028,0-19.135,9.314-10.166,9.344-14.931,27.608" transform="translate(1649.677 1543.677)" fill="#093242"/>
        <path id="Tracé_128" data-name="Tracé 128" d="M543.456,432.385l-5.269,26.589h-3.3c-.306-7.755-1.883-13.4-4.858-16.919a13.89,13.89,0,0,0-11.042-5.274c-3.542,0-6.375.946-8.478,2.911a9.548,9.548,0,0,0-3.1,7.07,12.456,12.456,0,0,0,1.243,5.448,34.2,34.2,0,0,0,5.471,7.257c7.454,8.194,12.248,14.336,14.428,18.5a24.993,24.993,0,0,1,3.263,11.709c0,5.991-2.509,11.325-7.449,15.941-4.986,4.652-11.238,6.988-18.847,6.988a43.388,43.388,0,0,1-14.341-2.943,13.665,13.665,0,0,0-4.383-1.024c-2.582,0-4.529,1.334-5.845,3.967h-3.195l5.269-28.138h3.3c.356,8.793,2.189,15.027,5.439,18.687,3.263,3.638,7.755,5.484,13.482,5.484,4.378,0,7.879-1.234,10.429-3.684a12,12,0,0,0,3.844-9.008,14.414,14.414,0,0,0-1.408-6.389q-2.392-5.2-10.159-14.35c-5.16-6.1-8.487-10.694-9.949-13.733a20.886,20.886,0,0,1-2.235-9.145,18.771,18.771,0,0,1,6.083-14.186c4.017-3.834,9.259-5.754,15.584-5.754a24.786,24.786,0,0,1,5.023.439A45.714,45.714,0,0,1,528.1,434.8c2.953,1.133,4.918,1.75,5.886,1.75,2.472,0,4.534-1.4,6.188-4.168Z" transform="translate(1705.622 1543.677)" fill="#093242"/>
        <path id="Tracé_129" data-name="Tracé 129" d="M574.241,434.368l-15.8,52.291q-3.544,11.682-3.542,14.73a4.25,4.25,0,0,0,.443,2.12,1.377,1.377,0,0,0,1.207.654,4.032,4.032,0,0,0,2.532-1.248c.928-.823,3.24-4.3,7-10.511l2.619,1.983c-4.026,7-8.085,12.047-12.289,15.182a13.753,13.753,0,0,1-8.043,3.03,6.092,6.092,0,0,1-4.675-1.892,7.129,7.129,0,0,1-1.773-4.927,35.63,35.63,0,0,1,1.151-7.719q1.508-5.971,8.208-27.453-15.308,24.075-25.52,33.019-10.249,8.96-18.93,8.971a9.74,9.74,0,0,1-6.937-2.751,9.3,9.3,0,0,1-2.843-6.956c0-4.31,1.531-10.927,4.543-19.853l9.026-26.731c2.226-6.412,3.332-10.356,3.332-11.923a2.315,2.315,0,0,0-.891-1.787,2.821,2.821,0,0,0-1.892-.722,8.628,8.628,0,0,0-4.369,1.307c-1.444.855-4.7,4.045-9.821,9.565l-2.664-1.892c4.707-6.672,9.725-11.617,14.99-14.771,4.031-2.5,7.756-3.7,11.151-3.7a7.406,7.406,0,0,1,5.713,2.422,9.134,9.134,0,0,1,2.212,6.284q0,4.607-4.054,16.48l-9.533,27.576c-2.61,7.536-3.94,12.294-3.94,14.273A3.245,3.245,0,0,0,512,502.048a4.079,4.079,0,0,0,2.961,1.015c1.97,0,4.547-.969,7.724-2.856q4.716-2.852,12.65-12.732a166.325,166.325,0,0,0,13.043-18.468c3.441-5.745,7.088-14.935,10.968-27.48l2.084-7.157Z" transform="translate(1764.754 1543.677)" fill="#093242"/>
        <path id="Tracé_130" data-name="Tracé 130" d="M518.753,437.234l29.477-4.849-12.12,41.972q15.212-25.844,27.7-36.109,7.074-5.861,11.521-5.863a5.981,5.981,0,0,1,4.506,1.682,6.562,6.562,0,0,1,1.668,4.84,21.754,21.754,0,0,1-2.934,10.886c-1.408,2.6-3.382,3.9-5.987,3.9a4.766,4.766,0,0,1-3.4-1.307,6.42,6.42,0,0,1-1.8-3.962,3.2,3.2,0,0,0-.791-2.162,2.09,2.09,0,0,0-1.618-.685,5.514,5.514,0,0,0-2.792.685c-1.485.786-3.775,3.035-6.855,6.714a195.081,195.081,0,0,0-15.566,21.982,65.427,65.427,0,0,0-6.243,12.92c-2.427,6.585-3.816,10.516-4.186,11.864L526.6,510.626H513.378L528.844,457c1.837-6.321,2.765-10.79,2.765-13.491a3.219,3.219,0,0,0-1.275-2.605,6.79,6.79,0,0,0-4.4-1.417,40.463,40.463,0,0,0-6.179.818Z" transform="translate(1832.833 1543.677)" fill="#093242"/>
        <path id="Tracé_131" data-name="Tracé 131" d="M542.139,477.876c-.288,2.852-.42,5.228-.42,7.111a17.485,17.485,0,0,0,5.525,13,18.751,18.751,0,0,0,13.468,5.374A30.161,30.161,0,0,0,572.9,500.8q5.868-2.529,17.385-11.21l1.8,2.5Q571.564,512.577,552.92,512.6q-12.655,0-19.071-7.984a27.086,27.086,0,0,1-6.435-17.522q0-12.847,7.961-26.315a59.678,59.678,0,0,1,20.031-20.927,46.153,46.153,0,0,1,24.756-7.468c6.142,0,10.667,1.2,13.624,3.661a11.207,11.207,0,0,1,4.392,8.8c0,4.78-1.915,9.337-5.8,13.71-5.073,5.685-12.618,10.274-22.517,13.793q-9.851,3.517-27.723,5.525m.64-4.172c8.724-1,15.858-2.651,21.347-5.023q10.872-4.723,16.3-11.311c3.633-4.392,5.466-8.56,5.466-12.522a7.67,7.67,0,0,0-2.344-5.85,9.41,9.41,0,0,0-6.681-2.217c-6.042,0-12.4,3.089-19.19,9.314q-10.118,9.344-14.894,27.608" transform="translate(1882.944 1543.677)" fill="#093242"/>
        <path id="Tracé_132" data-name="Tracé 132" d="M184.941,530.549q-8.96,10.79-18.08,15.831a39.651,39.651,0,0,1-19.313,4.986c-8.144,0-14.519-2.285-19.076-6.887q-6.869-6.91-6.855-18.582,0-13.182,7.372-25.995A59.916,59.916,0,0,1,148.8,479.148c8.3-5.3,16.443-7.993,24.45-7.993q9.385,0,14.039,3.939a12.2,12.2,0,0,1,4.643,9.661,13.609,13.609,0,0,1-3.268,9.2,7.334,7.334,0,0,1-5.909,2.9,6.083,6.083,0,0,1-4.447-1.682,5.886,5.886,0,0,1-1.75-4.351,7.049,7.049,0,0,1,.64-3.016,12.15,12.15,0,0,1,2.642-3.295,14.829,14.829,0,0,0,2.44-2.8,4.212,4.212,0,0,0,.43-1.81,3.664,3.664,0,0,0-1.654-3.034,12.411,12.411,0,0,0-7.079-1.764c-5.671,0-11.252,2.025-16.772,6.005-5.544,3.953-10.292,9.616-14.195,16.923a55.748,55.748,0,0,0-7.116,26.589q0,8.789,5.027,13.957,5.018,5.107,13.665,5.1a28.936,28.936,0,0,0,13.194-3.3q6.54-3.366,14.67-12.083Z" transform="translate(434.19 1682.091)" fill="#093242"/>
        <path id="Tracé_133" data-name="Tracé 133" d="M218.785,473.119l-15.776,52.315c-2.367,7.8-3.528,12.7-3.528,14.748a3.9,3.9,0,0,0,.434,2.121,1.351,1.351,0,0,0,1.188.658,4.04,4.04,0,0,0,2.536-1.2q1.378-1.261,7-10.548l2.6,1.974q-5.971,10.5-12.285,15.191a13.871,13.871,0,0,1-8.025,2.989,6,6,0,0,1-4.694-1.874,6.985,6.985,0,0,1-1.718-4.876,35.345,35.345,0,0,1,1.115-7.751c1-3.981,3.734-13.139,8.19-27.407q-15.26,24.069-25.506,33-10.249,8.9-18.943,8.907a9.558,9.558,0,0,1-6.915-2.728,9.266,9.266,0,0,1-2.838-6.942c0-4.3,1.513-10.923,4.57-19.9L155.2,495.1c2.207-6.371,3.309-10.37,3.309-11.91a2.209,2.209,0,0,0-.877-1.759,2.877,2.877,0,0,0-1.919-.772,8.323,8.323,0,0,0-4.342,1.307c-1.453.9-4.73,4.081-9.835,9.6l-2.683-1.9q7.075-10.043,15.022-14.775c4-2.472,7.724-3.738,11.124-3.738a7.34,7.34,0,0,1,5.717,2.477,8.889,8.889,0,0,1,2.2,6.261c0,3.08-1.335,8.555-4.049,16.48l-9.5,27.581q-3.949,11.291-3.939,14.3a3.324,3.324,0,0,0,1.106,2.623,4.332,4.332,0,0,0,2.993.983q2.968,0,7.687-2.843c3.172-1.938,7.4-6.161,12.677-12.728A165.264,165.264,0,0,0,192.945,507.8q5.141-8.665,10.973-27.462l2.061-7.221Z" transform="translate(495.725 1682.087)" fill="#093242"/>
        <path id="Tracé_134" data-name="Tracé 134" d="M222.485,471.155l-5.269,26.594h-3.3c-.283-7.742-1.906-13.349-4.876-16.9a13.942,13.942,0,0,0-11.037-5.315,11.771,11.771,0,0,0-8.437,2.971,9.312,9.312,0,0,0-3.121,7.075,12.188,12.188,0,0,0,1.252,5.438,34.4,34.4,0,0,0,5.457,7.239q11.147,12.3,14.428,18.486a25.565,25.565,0,0,1,3.263,11.763q0,8.994-7.463,15.932c-4.981,4.6-11.256,6.928-18.843,6.928a43.213,43.213,0,0,1-14.314-2.907,14,14,0,0,0-4.387-1.047c-2.591,0-4.543,1.312-5.877,3.953h-3.195l5.288-28.134h3.29q.507,13.244,5.448,18.71t13.482,5.47q6.567,0,10.411-3.642a12.017,12.017,0,0,0,3.839-9.058,14.934,14.934,0,0,0-1.376-6.362c-1.622-3.482-5.023-8.24-10.187-14.35q-7.746-9.138-9.954-13.733a20.8,20.8,0,0,1-2.217-9.14,18.8,18.8,0,0,1,6.083-14.167c4.026-3.853,9.236-5.8,15.616-5.8a26.865,26.865,0,0,1,5,.439c.8.192,2.678.877,5.626,2.038,2.961,1.129,4.917,1.7,5.909,1.7q3.695,0,6.206-4.177Z" transform="translate(559.695 1682.091)" fill="#093242"/>
        <path id="Tracé_135" data-name="Tracé 135" d="M214.658,466.489l-7.024,23.289h11.8l-1.536,5.5h-11.91l-15.831,50.975c-1.947,5.822-2.925,9.552-2.925,11.279a3.1,3.1,0,0,0,.617,2.089,1.965,1.965,0,0,0,1.472.772c1.289,0,2.98-.96,5.119-2.861,1.238-1.152,4-4.721,8.295-10.648l2.856,2.171q-7.568,11.421-14.291,15.895a16.5,16.5,0,0,1-9.277,3.076,7.929,7.929,0,0,1-5.918-2.335,8.287,8.287,0,0,1-2.294-6.014c0-3.144.978-7.893,2.911-14.291l15.241-50.107h-13.2l.868-3.373a45.909,45.909,0,0,0,16.16-7.756q6.65-5.128,15.077-17.659Z" transform="translate(620.509 1665.433)" fill="#093242"/>
        <path id="Tracé_136" data-name="Tracé 136" d="M260.82,498.177a53.412,53.412,0,0,1-6.878,25.675,51.757,51.757,0,0,1-19.144,20.1q-12.264,7.438-23.865,7.413c-7.888,0-14.341-2.491-19.323-7.527q-7.486-7.6-7.481-19.547,0-12.716,7.312-25.506a55.326,55.326,0,0,1,19.542-20.2q12.257-7.438,23.655-7.436c7.609,0,13.87,2.537,18.806,7.536q7.383,7.465,7.376,19.487m-14.277-6.032q0-8.048-3.93-12.312a13.151,13.151,0,0,0-10.146-4.3q-12.716,0-23.381,18.212-10.667,18.18-10.671,36.145c0,5.461,1.394,9.671,4.15,12.627a13.646,13.646,0,0,0,10.452,4.451q12.2,0,22.86-18.075,10.68-18.077,10.667-36.749" transform="translate(657.363 1682.087)" fill="#093242"/>
        <path id="Tracé_137" data-name="Tracé 137" d="M238.665,471.155l-11.3,39.175q7.705-13.848,13.084-20.776c5.608-7.143,11.06-12.371,16.37-15.612a18.79,18.79,0,0,1,9.808-2.788,10.04,10.04,0,0,1,7.344,2.888,9.86,9.86,0,0,1,2.9,7.326,38,38,0,0,1-2.143,10.936l-6.59,21.763q14.869-26.386,28.234-37.032,7.41-5.875,14.624-5.882a8.771,8.771,0,0,1,6.892,3c1.8,1.97,2.7,5.046,2.7,9.191a34.589,34.589,0,0,1-1.778,10.52l-10.781,33.284c-2.367,7.207-3.542,11.247-3.542,12.01a2.991,2.991,0,0,0,.7,2.016,1.523,1.523,0,0,0,1.252.58,6.037,6.037,0,0,0,2.733-1.572,41.991,41.991,0,0,0,8.354-9.99l2.852,1.828a70.474,70.474,0,0,1-7.372,9.346c-3.537,3.907-6.549,6.586-9.053,7.943a14.6,14.6,0,0,1-6.915,2.057,6.493,6.493,0,0,1-4.867-2.025,7.038,7.038,0,0,1-1.961-5.032q0-4.161,4.095-16.695l9.113-27.727c2.07-6.375,3.172-9.9,3.3-10.617a18.047,18.047,0,0,0,.3-3.2A5.2,5.2,0,0,0,306,482.676a3.447,3.447,0,0,0-2.509-1.2c-2.628,0-5.388,1.261-8.313,3.738q-12.9,10.975-24.1,30.767c-4.922,8.683-9.533,19.843-13.829,33.4H244.135l15.776-52.04c1.727-5.64,2.591-9.383,2.591-11.288a5.087,5.087,0,0,0-.983-3.432,3.079,3.079,0,0,0-2.386-1.142,11.762,11.762,0,0,0-6.188,2.1c-3.542,2.216-8.094,7.02-13.642,14.346a112.9,112.9,0,0,0-12.956,21.087q-2.207,4.778-10.507,30.369H203.036l16.155-56,2.107-7.289a8.4,8.4,0,0,0,.585-2.418,4.457,4.457,0,0,0-1.737-3.45,6.435,6.435,0,0,0-4.442-1.508,54.564,54.564,0,0,0-6.293,1.005l-.649-3.071Z" transform="translate(724.868 1682.091)" fill="#093242"/>
        <path id="Tracé_138" data-name="Tracé 138" d="M305.441,471.155l-5.274,26.594h-3.3c-.283-7.742-1.91-13.349-4.872-16.9a13.962,13.962,0,0,0-11.051-5.315,11.774,11.774,0,0,0-8.432,2.971,9.324,9.324,0,0,0-3.117,7.075,12.25,12.25,0,0,0,1.252,5.438,34.171,34.171,0,0,0,5.452,7.239q11.153,12.3,14.423,18.486a25.408,25.408,0,0,1,3.268,11.763q0,8.994-7.463,15.932c-4.972,4.6-11.256,6.928-18.847,6.928a43.279,43.279,0,0,1-14.309-2.907,13.909,13.909,0,0,0-4.392-1.047c-2.587,0-4.533,1.312-5.868,3.953h-3.19L245,523.232h3.3q.528,13.244,5.452,18.71c3.272,3.651,7.783,5.47,13.477,5.47q6.574,0,10.406-3.642a12,12,0,0,0,3.843-9.058,14.931,14.931,0,0,0-1.371-6.362c-1.632-3.482-5.032-8.24-10.191-14.35q-7.746-9.138-9.954-13.733a20.666,20.666,0,0,1-2.207-9.14,18.793,18.793,0,0,1,6.074-14.167c4.026-3.853,9.241-5.8,15.616-5.8a26.778,26.778,0,0,1,4.991.439c.8.192,2.683.877,5.64,2.038a21.58,21.58,0,0,0,5.9,1.7q3.695,0,6.2-4.177Z" transform="translate(855.842 1682.091)" fill="#093242"/>
        <path id="Tracé_139" data-name="Tracé 139" d="M304.18,461.343l-24.423,84.785q16.919-24.062,26.388-32.009,9.5-7.938,18.148-7.934a9.866,9.866,0,0,1,7.426,3.117,11.523,11.523,0,0,1,2.962,8.3,43.515,43.515,0,0,1-2.719,13.72l-11.9,35.921a58.913,58.913,0,0,0-2.226,7.193,2.8,2.8,0,0,0,.626,1.906,1.99,1.99,0,0,0,1.494.741,3.806,3.806,0,0,0,2.276-1.069,46.257,46.257,0,0,0,8.6-10.475l2.664,1.636a59.53,59.53,0,0,1-7.737,9.871,39.186,39.186,0,0,1-8.528,7.344,13.445,13.445,0,0,1-6.352,2,6.672,6.672,0,0,1-4.959-1.983,7.187,7.187,0,0,1-1.919-5.155q0-3.8,3.46-14.186l11.393-34.546c1.426-4.314,2.171-7.705,2.171-10.2a3.522,3.522,0,0,0-1.184-2.76,4.535,4.535,0,0,0-3.108-1.065,13.731,13.731,0,0,0-6.261,1.924q-6.451,3.6-14.9,13.4-2.289,2.687-15.2,21.548a53.655,53.655,0,0,0-6.3,13.212l-5.352,17.819H255.919L284.5,485.3l3.044-11a5.491,5.491,0,0,0-1.869-4.068,6.576,6.576,0,0,0-4.593-1.737,30.8,30.8,0,0,0-4.831.507l-1.855.26v-3.076Z" transform="translate(913.668 1647.061)" fill="#093242"/>
        <path id="Tracé_140" data-name="Tracé 140" d="M310.738,497.674l-18.244,61.377a41.7,41.7,0,0,0-1.837,7.381,3.211,3.211,0,0,0,.768,2.2,2.3,2.3,0,0,0,1.76.818,4.834,4.834,0,0,0,2.852-1.321,49.1,49.1,0,0,0,9.127-11.023l3.016,1.974a56.048,56.048,0,0,1-13.19,14.844c-3.761,2.943-7.358,4.4-10.763,4.4a7.57,7.57,0,0,1-5.525-2.084,6.979,6.979,0,0,1-2.139-5.247q0-3.222,2.308-10.717l12.056-39.1c1.842-6.435,2.747-10.484,2.747-12.129a4.133,4.133,0,0,0-1.321-3.19,5.317,5.317,0,0,0-3.674-1.211,71.1,71.1,0,0,0-7.87.928v-3.085Zm-3.766-34.07a8.4,8.4,0,0,1,6.174,2.532,8.706,8.706,0,0,1-6.174,14.821,8.15,8.15,0,0,1-6.1-2.55,8.638,8.638,0,0,1,6.1-14.8" transform="translate(987.366 1655.133)" fill="#093242"/>
        <path id="Tracé_141" data-name="Tracé 141" d="M339.4,471.154l-5.713,19.862c6.261-7.358,11.9-12.508,16.836-15.452a29.269,29.269,0,0,1,15.114-4.41,17.011,17.011,0,0,1,13.162,6.1q5.464,6.1,5.47,15.849,0,18.989-15.516,38.65-15.513,19.62-36.109,19.615a28.069,28.069,0,0,1-7.673-.937,33.278,33.278,0,0,1-7.481-3.29l-6.4,22.275c-1.289,4.428-1.906,7.285-1.906,8.638a5.345,5.345,0,0,0,.992,3.272,6.386,6.386,0,0,0,3.245,2.066c1.471.5,4.447.708,8.9.708l-.781,3.066H281.051l.878-3.066c5.356-.206,8.989-1.138,10.854-2.728,1.892-1.65,3.839-6.1,5.937-13.45l21.813-75.672c1.312-4.913,1.974-7.952,1.974-9.177a4.89,4.89,0,0,0-1.353-3.706,5.48,5.48,0,0,0-4.1-1.339,60.284,60.284,0,0,0-7.07.594v-3.085Zm-19.889,69c3.629,4.278,8.478,6.375,14.615,6.375a19.838,19.838,0,0,0,9.264-2.458,35.545,35.545,0,0,0,9.232-7.427,62.236,62.236,0,0,0,8.094-11.384,88.934,88.934,0,0,0,6.426-15.122,55.587,55.587,0,0,0,2.838-17.248c0-4.611-1.069-8.13-3.227-10.58a9.75,9.75,0,0,0-7.545-3.688q-9.508,0-18.824,10.726a64.906,64.906,0,0,0-13.45,25.085Z" transform="translate(1003.392 1682.087)" fill="#093242"/>
        <path id="Tracé_142" data-name="Tracé 142" d="M358.786,471.154l-5.745,19.862c6.307-7.358,11.9-12.508,16.85-15.452a29.408,29.408,0,0,1,15.1-4.41,17.075,17.075,0,0,1,13.194,6.1c3.61,4.067,5.439,9.346,5.439,15.849q0,18.989-15.5,38.65-15.5,19.62-36.1,19.615a27.93,27.93,0,0,1-7.664-.937,32.908,32.908,0,0,1-7.495-3.29l-6.435,22.275c-1.261,4.428-1.906,7.285-1.906,8.638a5.447,5.447,0,0,0,1.01,3.272,6.273,6.273,0,0,0,3.24,2.066c1.5.5,4.483.708,8.916.708l-.786,3.066H300.444l.873-3.066c5.356-.206,8.948-1.138,10.827-2.728,1.887-1.65,3.866-6.1,5.918-13.45l21.818-75.672c1.33-4.913,2.011-7.952,2.011-9.177a5.043,5.043,0,0,0-1.335-3.706,5.684,5.684,0,0,0-4.159-1.339,60.555,60.555,0,0,0-7.056.594v-3.085Zm-19.885,69c3.592,4.278,8.468,6.375,14.579,6.375a19.746,19.746,0,0,0,9.268-2.458,35.393,35.393,0,0,0,9.232-7.427,60.53,60.53,0,0,0,8.094-11.384,83.77,83.77,0,0,0,6.421-15.122,55.459,55.459,0,0,0,2.843-17.248c0-4.611-1.051-8.13-3.226-10.58a9.75,9.75,0,0,0-7.527-3.688q-9.508,0-18.834,10.726a65.274,65.274,0,0,0-13.45,25.085Z" transform="translate(1072.628 1682.087)" fill="#093242"/>
        <path id="Tracé_143" data-name="Tracé 143" d="M360.286,497.674l-18.207,61.377a42.162,42.162,0,0,0-1.828,7.381,3.258,3.258,0,0,0,.727,2.2,2.366,2.366,0,0,0,1.787.818,4.858,4.858,0,0,0,2.852-1.321,49.122,49.122,0,0,0,9.136-11.023l3.025,1.974a56.192,56.192,0,0,1-13.235,14.844c-3.757,2.943-7.317,4.4-10.731,4.4a7.62,7.62,0,0,1-5.543-2.084,6.964,6.964,0,0,1-2.162-5.247c0-2.148.786-5.726,2.326-10.717l12.061-39.1q2.769-9.652,2.765-12.129a4.1,4.1,0,0,0-1.335-3.19,5.3,5.3,0,0,0-3.665-1.211,70.892,70.892,0,0,0-7.874.928v-3.085Zm-3.72-34.07a8.413,8.413,0,0,1,6.151,2.532,8.266,8.266,0,0,1,2.514,6.151,8.39,8.39,0,0,1-2.541,6.119,8.656,8.656,0,0,1-12.271,0,8.384,8.384,0,0,1-2.555-6.119,8.645,8.645,0,0,1,8.7-8.683" transform="translate(1164.245 1655.133)" fill="#093242"/>
        <path id="Tracé_144" data-name="Tracé 144" d="M371.005,471.155l-11.366,39.509q17.391-24.247,26.635-31.872c6.147-5.073,12.079-7.637,17.8-7.637a10.3,10.3,0,0,1,7.7,3.121,11.332,11.332,0,0,1,3.03,8.167c0,3.432-.932,7.993-2.833,13.706l-11.928,36.086c-1.348,4.181-2.07,6.718-2.07,7.609a3.209,3.209,0,0,0,.649,1.961,1.759,1.759,0,0,0,1.284.768,3.614,3.614,0,0,0,2.2-1.069,51.737,51.737,0,0,0,8.884-10.991l2.651,1.641c-5.091,7.568-9.94,12.9-14.469,16.018-3.19,2.148-6.046,3.195-8.574,3.195a6.359,6.359,0,0,1-4.872-1.929,7.147,7.147,0,0,1-1.805-5.128c0-2.774,1.129-7.5,3.373-14.236l11.521-34.646a33.578,33.578,0,0,0,2.171-10.05,3.568,3.568,0,0,0-1.234-2.8,4.535,4.535,0,0,0-3.039-1.1,13.592,13.592,0,0,0-6.3,2.1c-4.648,2.582-9.51,6.8-14.492,12.741a175.345,175.345,0,0,0-15.977,22.741,80.607,80.607,0,0,0-7.363,15.986l-4.14,14.332h-12.8l15.644-54.28c1.9-6.471,2.779-10.365,2.779-11.7a4.361,4.361,0,0,0-1.522-3.327,5.127,5.127,0,0,0-3.724-1.417,26.475,26.475,0,0,0-3.56.366l-3.254.489-.813-3.1Z" transform="translate(1198.254 1682.091)" fill="#093242"/>
        <path id="Tracé_145" data-name="Tracé 145" d="M450.188,476.414l-2.5,9.013h-14.35a27.148,27.148,0,0,1,1.613,8.743q0,11.414-9.785,20.342-9.817,8.891-27,9.821-8.96,2.8-13.391,6.563a3.762,3.762,0,0,0-1.7,2.865,4.286,4.286,0,0,0,1.549,3.167c1.028.923,3.647,1.888,7.829,2.852l16.859,3.894c9.3,2.143,15.461,4.744,18.427,7.751a14.765,14.765,0,0,1,4.351,10.516,19.041,19.041,0,0,1-5.256,12.965q-5.224,5.875-15.324,9.191a71.375,71.375,0,0,1-22.279,3.313,69.8,69.8,0,0,1-19.592-2.532c-5.9-1.682-10.109-3.971-12.673-6.855-2.5-2.87-3.77-5.818-3.77-8.916a14.572,14.572,0,0,1,2.472-7.682,21.6,21.6,0,0,1,6.2-6.627c1.581-1.051,6.019-3.674,13.313-7.751-2.642-2.066-3.962-4.369-3.962-6.837,0-2.3,1.115-4.721,3.373-7.308s7-5.434,14.282-8.569c-6.151-1.211-11.046-3.848-14.643-7.911a20.16,20.16,0,0,1-5.438-13.66q0-12.278,10.822-21.95,10.811-9.625,28.76-9.657a37.032,37.032,0,0,1,10.676,1.293,30.436,30.436,0,0,1,8.089,3.967ZM378.9,549.28a26.185,26.185,0,0,0-10.657,8.227,16.7,16.7,0,0,0-3.624,9.858c0,3.77,1.723,6.956,5.205,9.446,4.986,3.565,12.257,5.32,21.868,5.32,8.313,0,15.356-1.371,21.242-4.173s8.82-6.421,8.82-10.886c0-2.253-1.1-4.387-3.254-6.385-2.194-2.016-6.366-3.661-12.618-4.927q-5.121-1.056-26.982-6.481m41.753-59.042c0-4.529-1.321-8.126-3.962-10.731a14.063,14.063,0,0,0-10.411-3.976q-10.077,0-16.644,9.748a35.4,35.4,0,0,0-6.563,20.159,14.552,14.552,0,0,0,4.2,10.767,13.765,13.765,0,0,0,10.168,4.177,18.61,18.61,0,0,0,9.149-2.463,22.4,22.4,0,0,0,7.472-6.823,35.387,35.387,0,0,0,4.8-11.1,44.847,44.847,0,0,0,1.787-9.762" transform="translate(1260.96 1682.087)" fill="#093242"/>
        <path id="Tracé_146" data-name="Tracé 146" d="M437.43,471.154l-5.745,19.862q9.419-11.037,16.832-15.452a29.4,29.4,0,0,1,15.114-4.41,17.057,17.057,0,0,1,13.2,6.1q5.422,6.1,5.434,15.849,0,18.989-15.511,38.65-15.493,19.62-36.081,19.615a27.851,27.851,0,0,1-7.669-.937,32.992,32.992,0,0,1-7.495-3.29l-6.43,22.275c-1.261,4.428-1.91,7.285-1.91,8.638a5.414,5.414,0,0,0,1.005,3.272,6.372,6.372,0,0,0,3.24,2.066c1.5.5,4.465.708,8.925.708l-.8,3.066H379.078l.873-3.066c5.356-.206,8.957-1.138,10.827-2.728,1.892-1.65,3.866-6.1,5.937-13.45l21.8-75.672c1.321-4.913,2.011-7.952,2.011-9.177a5.014,5.014,0,0,0-1.353-3.706,5.611,5.611,0,0,0-4.15-1.339,60.852,60.852,0,0,0-7.061.594v-3.085Zm-19.9,69c3.606,4.278,8.459,6.375,14.583,6.375a19.65,19.65,0,0,0,9.268-2.458,35.291,35.291,0,0,0,9.223-7.427,59.365,59.365,0,0,0,8.107-11.384,86.446,86.446,0,0,0,6.421-15.122,54.644,54.644,0,0,0,2.829-17.248c0-4.611-1.028-8.13-3.208-10.58a9.746,9.746,0,0,0-7.518-3.688q-9.522,0-18.856,10.726a65.483,65.483,0,0,0-13.432,25.085Z" transform="translate(1353.363 1682.087)" fill="#093242"/>
        <path id="Tracé_147" data-name="Tracé 147" d="M487.2,471.394l-16.809,58.822-1.951,7.865a8.109,8.109,0,0,0-.265,1.778,4,4,0,0,0,.594,2.194,1.519,1.519,0,0,0,1.248.658,3.431,3.431,0,0,0,2.1-1.22c1.563-1.531,3.725-4.936,6.384-10.2l2.948,2.084c-3.373,5.818-6.819,10.127-10.411,12.952-3.551,2.8-6.855,4.182-9.876,4.182a6.265,6.265,0,0,1-4.858-1.842,7.575,7.575,0,0,1-1.741-5.356,42.776,42.776,0,0,1,1.951-11.087l1.906-6.558c-8.354,9.835-15.986,16.718-22.974,20.616a29.962,29.962,0,0,1-14.771,4.227A16.151,16.151,0,0,1,408.7,545.38q-5.08-5.155-5.068-14.172,0-13.566,8.962-28.568a72.278,72.278,0,0,1,22.691-24.085c7.189-4.744,13.953-7.161,20.332-7.161a16.848,16.848,0,0,1,9.5,2.555c2.527,1.7,4.46,4.538,5.781,8.432l2.847-9Zm-31.9,4.4q-6.039,0-12.828,5.114-9.6,7.205-17.079,21.388-7.459,14.19-7.458,25.634c0,3.848,1.092,6.887,3.313,9.122a10.42,10.42,0,0,0,7.641,3.345c7.1,0,14.862-4.552,23.207-13.646q15.232-18.187,14.775-37.261,0-7.232-3.126-10.448a11.168,11.168,0,0,0-8.446-3.249" transform="translate(1441.038 1682.944)" fill="#093242"/>
        <path id="Tracé_148" data-name="Tracé 148" d="M486.55,530.549q-8.98,10.79-18.1,15.831a39.608,39.608,0,0,1-19.3,4.986q-12.243,0-19.085-6.887c-4.593-4.607-6.846-10.809-6.846-18.582q0-13.182,7.358-25.995A59.789,59.789,0,0,1,450.4,479.148c8.322-5.3,16.443-7.993,24.432-7.993q9.385,0,14.062,3.939a12.219,12.219,0,0,1,4.652,9.661,13.565,13.565,0,0,1-3.3,9.2,7.3,7.3,0,0,1-5.9,2.9,6,6,0,0,1-4.428-1.682,5.8,5.8,0,0,1-1.746-4.351,6.843,6.843,0,0,1,.626-3.016,11.906,11.906,0,0,1,2.632-3.295,13.669,13.669,0,0,0,2.44-2.8,4.3,4.3,0,0,0,.443-1.81,3.653,3.653,0,0,0-1.654-3.034,12.488,12.488,0,0,0-7.075-1.764c-5.676,0-11.265,2.025-16.818,6.005-5.525,3.953-10.274,9.616-14.167,16.923a55.865,55.865,0,0,0-7.088,26.589c0,5.859,1.641,10.511,5,13.957,3.341,3.4,7.92,5.1,13.669,5.1a28.791,28.791,0,0,0,13.189-3.3q6.506-3.366,14.688-12.083Z" transform="translate(1510.96 1682.091)" fill="#093242"/>
        <path id="Tracé_149" data-name="Tracé 149" d="M488.406,461.343l-24.276,84.845,9.656-8.267c10.877-9.031,17.915-15.7,21.169-20.1a6.815,6.815,0,0,0,1.526-3.4,2.744,2.744,0,0,0-.484-1.549,3.886,3.886,0,0,0-2.038-1.161,20.746,20.746,0,0,0-5.329-.471h-3.021l.923-3.089h37.8l-.845,3.089a37.085,37.085,0,0,0-11.2,2.152,33.093,33.093,0,0,0-9.122,5.169c-5.754,4.392-9.565,7.39-11.379,9.108l-7.189,6.458q1.851,6.211,4.639,17.325,4.627,18.5,6.27,21.919c1.092,2.253,2.2,3.354,3.35,3.354a6,6,0,0,0,3.45-1.444c2.98-2.171,6.165-5.631,9.542-10.416l3.016,2.189q-9.433,11.832-14.455,15.594c-3.318,2.523-6.4,3.747-9.159,3.747a6.506,6.506,0,0,1-5.621-2.747c-2.262-3.414-6.115-16.869-11.439-40.327L462,553.756l-8.807,30.652H439.711l28.582-99.021,2.395-8.427a18.262,18.262,0,0,0,.448-3.748,4.432,4.432,0,0,0-1.558-3.437,6.969,6.969,0,0,0-4.584-1.357,35.942,35.942,0,0,0-6.183.845l-.21-3.076Z" transform="translate(1569.831 1647.061)" fill="#093242"/>
        <path id="Tracé_150" data-name="Tracé 150" d="M541.045,471.394,524.19,530.216l-1.906,7.865a6.057,6.057,0,0,0-.292,1.778,3.947,3.947,0,0,0,.626,2.194,1.427,1.427,0,0,0,1.2.658,3.435,3.435,0,0,0,2.1-1.22c1.609-1.531,3.734-4.936,6.412-10.2l2.925,2.084q-5.045,8.726-10.388,12.952c-3.578,2.8-6.86,4.182-9.894,4.182a6.211,6.211,0,0,1-4.84-1.842,7.612,7.612,0,0,1-1.718-5.356,43.058,43.058,0,0,1,1.892-11.087l1.92-6.558q-12.5,14.753-22.97,20.616a29.89,29.89,0,0,1-14.739,4.227,16.176,16.176,0,0,1-11.992-5.132q-5.066-5.155-5.073-14.172,0-13.566,8.944-28.568a72.362,72.362,0,0,1,22.723-24.085c7.166-4.744,13.925-7.161,20.3-7.161a16.766,16.766,0,0,1,9.506,2.555c2.527,1.7,4.46,4.538,5.786,8.432l2.843-9Zm-31.945,4.4c-4.054,0-8.281,1.714-12.819,5.114-6.366,4.8-12.079,11.942-17.047,21.388q-7.507,14.19-7.5,25.634c0,3.848,1.129,6.887,3.359,9.122a10.346,10.346,0,0,0,7.627,3.345c7.084,0,14.844-4.552,23.189-13.646,10.146-12.125,15.1-24.519,14.776-37.261q0-7.232-3.1-10.448a11.218,11.218,0,0,0-8.482-3.249" transform="translate(1633.155 1682.944)" fill="#093242"/>
        <path id="Tracé_151" data-name="Tracé 151" d="M571.861,476.414l-2.5,9.013H555.042a28.375,28.375,0,0,1,1.591,8.743c0,7.609-3.24,14.405-9.78,20.342s-15.547,9.213-27,9.821c-5.969,1.865-10.411,4.045-13.386,6.563a3.749,3.749,0,0,0-1.709,2.865,4.362,4.362,0,0,0,1.531,3.167c1.065.923,3.67,1.888,7.838,2.852l16.877,3.894c9.31,2.143,15.47,4.744,18.422,7.751a14.784,14.784,0,0,1,4.332,10.516,19.139,19.139,0,0,1-5.228,12.965c-3.483,3.917-8.61,6.988-15.328,9.191a71.566,71.566,0,0,1-22.293,3.313,69.8,69.8,0,0,1-19.583-2.532q-8.857-2.523-12.655-6.855c-2.541-2.87-3.811-5.818-3.811-8.916a14.67,14.67,0,0,1,2.5-7.682,21.832,21.832,0,0,1,6.188-6.627c1.609-1.051,6.019-3.674,13.331-7.751-2.669-2.066-3.985-4.369-3.985-6.837,0-2.3,1.124-4.721,3.377-7.308s7.011-5.434,14.286-8.569q-9.241-1.817-14.643-7.911a20.187,20.187,0,0,1-5.443-13.66q0-12.278,10.831-21.95,10.763-9.625,28.76-9.657a37.231,37.231,0,0,1,10.685,1.293,30.743,30.743,0,0,1,8.071,3.967ZM500.585,549.28a26.248,26.248,0,0,0-10.657,8.227,16.725,16.725,0,0,0-3.62,9.858c0,3.77,1.728,6.956,5.228,9.446,4.963,3.565,12.239,5.32,21.868,5.32,8.286,0,15.346-1.371,21.228-4.173,5.864-2.806,8.816-6.421,8.816-10.886,0-2.253-1.1-4.387-3.245-6.385-2.194-2.016-6.371-3.661-12.623-4.927q-5.114-1.056-27-6.481m41.762-59.042c0-4.529-1.316-8.126-3.958-10.731a14.113,14.113,0,0,0-10.4-3.976c-6.746,0-12.275,3.259-16.658,9.748a35.4,35.4,0,0,0-6.567,20.159,14.513,14.513,0,0,0,4.218,10.767,13.746,13.746,0,0,0,10.16,4.177,18.58,18.58,0,0,0,9.145-2.463,22.47,22.47,0,0,0,7.468-6.823,34.857,34.857,0,0,0,4.8-11.1,44.09,44.09,0,0,0,1.791-9.762" transform="translate(1695.333 1682.087)" fill="#093242"/>
        <path id="Tracé_152" data-name="Tracé 152" d="M531.5,497.674l-18.226,61.377a45.667,45.667,0,0,0-1.837,7.381,3.156,3.156,0,0,0,.745,2.2,2.323,2.323,0,0,0,1.8.818,5.083,5.083,0,0,0,2.861-1.321,49.458,49.458,0,0,0,9.1-11.023l3.034,1.974a56.008,56.008,0,0,1-13.253,14.844c-3.725,2.943-7.28,4.4-10.694,4.4a7.573,7.573,0,0,1-5.548-2.084,6.967,6.967,0,0,1-2.143-5.247c0-2.148.777-5.726,2.308-10.717l12.029-39.1c1.86-6.435,2.811-10.484,2.811-12.129a4.039,4.039,0,0,0-1.394-3.19,5.117,5.117,0,0,0-3.642-1.211,71.42,71.42,0,0,0-7.879.928v-3.085Zm-3.725-34.07a8.645,8.645,0,0,1,6.106,14.8,8.612,8.612,0,0,1-12.234,0,8.756,8.756,0,0,1-.055-12.271,8.4,8.4,0,0,1,6.183-2.532" transform="translate(1775.561 1655.133)" fill="#093242"/>
        <path id="Tracé_153" data-name="Tracé 153" d="M542.24,471.155l-11.4,39.509c11.6-16.165,20.452-26.758,26.653-31.872,6.165-5.073,12.111-7.637,17.815-7.637a10.243,10.243,0,0,1,7.673,3.121A11.325,11.325,0,0,1,586,482.443c0,3.432-.923,7.993-2.824,13.706L571.27,532.235c-1.367,4.181-2.066,6.718-2.066,7.609a3.309,3.309,0,0,0,.621,1.961,1.783,1.783,0,0,0,1.321.768,3.7,3.7,0,0,0,2.189-1.069,52.48,52.48,0,0,0,8.852-10.991l2.692,1.641Q577.2,543.5,570.374,548.171c-3.19,2.148-6.046,3.195-8.56,3.195a6.278,6.278,0,0,1-4.854-1.929,7.132,7.132,0,0,1-1.814-5.128c0-2.774,1.092-7.5,3.359-14.236l11.5-34.646a33.287,33.287,0,0,0,2.207-10.05,3.532,3.532,0,0,0-1.243-2.8,4.531,4.531,0,0,0-3.012-1.1,13.757,13.757,0,0,0-6.348,2.1c-4.652,2.582-9.492,6.8-14.506,12.741a179.092,179.092,0,0,0-15.954,22.741,82.994,82.994,0,0,0-7.362,15.986l-4.131,14.332h-12.8l15.653-54.28c1.837-6.471,2.774-10.365,2.774-11.7a4.527,4.527,0,0,0-1.494-3.327,5.284,5.284,0,0,0-3.743-1.417,26.145,26.145,0,0,0-3.574.366l-3.24.489-.823-3.1Z" transform="translate(1809.556 1682.091)" fill="#093242"/>
        <path id="Tracé_154" data-name="Tracé 154" d="M621.437,476.414l-2.5,9.013H604.591a27.87,27.87,0,0,1,1.6,8.743q0,11.414-9.785,20.342-9.831,8.891-27.032,9.821-8.912,2.8-13.359,6.563a3.788,3.788,0,0,0-1.7,2.865,4.269,4.269,0,0,0,1.536,3.167c1.033.923,3.638,1.888,7.806,2.852l16.873,3.894c9.35,2.143,15.493,4.744,18.436,7.751a14.828,14.828,0,0,1,4.355,10.516,19.064,19.064,0,0,1-5.237,12.965q-5.224,5.875-15.333,9.191a71.484,71.484,0,0,1-22.3,3.313,69.915,69.915,0,0,1-19.583-2.532c-5.891-1.682-10.114-3.971-12.627-6.855s-3.821-5.818-3.821-8.916a14.63,14.63,0,0,1,2.5-7.682,21.842,21.842,0,0,1,6.193-6.627c1.563-1.051,5.987-3.674,13.29-7.751-2.624-2.066-3.958-4.369-3.958-6.837,0-2.3,1.106-4.721,3.373-7.308,2.226-2.6,7.02-5.434,14.291-8.569q-9.248-1.817-14.661-7.911a20.183,20.183,0,0,1-5.42-13.66c0-8.185,3.579-15.507,10.822-21.95q10.763-9.625,28.742-9.657a37.2,37.2,0,0,1,10.7,1.293,29.8,29.8,0,0,1,8.057,3.967Zm-71.29,72.866a26.134,26.134,0,0,0-10.694,8.227,16.922,16.922,0,0,0-3.587,9.858c0,3.77,1.714,6.956,5.2,9.446,4.963,3.565,12.271,5.32,21.9,5.32,8.263,0,15.315-1.371,21.21-4.173,5.841-2.806,8.816-6.421,8.816-10.886,0-2.253-1.083-4.387-3.259-6.385q-3.256-3.023-12.6-4.927c-3.409-.7-12.427-2.861-26.987-6.481m41.762-59.042c0-4.529-1.344-8.126-3.985-10.731a14.131,14.131,0,0,0-10.415-3.976c-6.714,0-12.234,3.259-16.649,9.748a35.373,35.373,0,0,0-6.544,20.159,14.539,14.539,0,0,0,4.182,10.767,13.862,13.862,0,0,0,10.173,4.177,18.722,18.722,0,0,0,9.177-2.463,22.416,22.416,0,0,0,7.436-6.823,35.277,35.277,0,0,0,4.8-11.1,43.032,43.032,0,0,0,1.823-9.762" transform="translate(1872.244 1682.087)" fill="#093242"/>
      </g>
    </g>
  </g>
</svg>
